<svg width="112" height="31" viewBox="0 0 112 31" fill="none" xmlns="http://www.w3.org/2000/svg">
<g id="SBER_LOGO_RUS_H_GRN_RGB 1" clip-path="url(#clip0_79_1903)">
<g id="Layer 1">
<path id="Vector" d="M15.1124 14.686L9.35986 11.079V15.415L15.1124 19.022L28.8826 8.877C28.3978 7.8099 27.7899 6.80308 27.0715 5.877L15.1124 14.686Z" fill="#21A038"/>
<path id="Vector_2" d="M30.2247 15.115C30.2251 14.2072 30.1441 13.3013 29.9827 12.408L26.7294 14.808C26.7294 14.908 26.7344 15.015 26.7344 15.118C26.7344 17.7162 25.8645 20.2395 24.2632 22.2857C22.662 24.3319 20.4217 25.7831 17.8995 26.4078C15.3774 27.0326 12.7186 26.795 10.3473 25.7329C7.97589 24.6708 6.02846 22.8453 4.8155 20.5476C3.60254 18.2499 3.19389 15.6123 3.65473 13.0553C4.11556 10.4984 5.41934 8.16929 7.35816 6.43953C9.29698 4.70977 11.7592 3.67891 14.3522 3.51135C16.9452 3.34379 19.5196 4.04916 21.665 5.51499L24.6042 3.34899C21.9375 1.19668 18.6183 0.0146197 15.1912 -0.00325795C11.7642 -0.0211356 8.43282 1.12623 5.74374 3.25061C3.05465 5.37498 1.16754 8.35018 0.392029 11.6881C-0.383487 15.026 -0.00134795 18.5283 1.47574 21.6205C2.95284 24.7126 5.43716 27.2109 8.52111 28.7055C11.6051 30.2001 15.1055 30.6022 18.448 29.8458C21.7906 29.0895 24.7768 27.2196 26.9167 24.5429C29.0566 21.8662 30.223 18.5418 30.2247 15.115Z" fill="#21A038"/>
<path id="Vector_3" d="M88.0271 9.046L92.1355 6.019H78.3853V24.204H92.1355V21.176H82.3096V16.52H90.6914V13.492H82.3096V9.046H88.0271Z" fill="#21A038"/>
<path id="Vector_4" d="M68.0064 13.108H63.231V9.047H70.8537L74.963 6.015H59.3066V24.204H67.5004C72.1008 24.204 74.732 22.122 74.732 18.492C74.732 15.02 72.3438 13.108 68.0064 13.108ZM67.3234 21.176H63.231V16.136H67.3234C69.8136 16.136 70.9737 16.979 70.9737 18.656C70.9777 20.369 69.7456 21.176 67.3234 21.176Z" fill="#21A038"/>
<path id="Vector_5" d="M103.28 6.015H95.7896V24.204H99.7139V19.053H103.28C108.059 19.053 111.026 16.541 111.026 12.527C111.026 8.513 108.055 6.015 103.28 6.015ZM103.196 16.021H99.7179V9.047H103.196C105.711 9.047 107.097 10.286 107.097 12.536C107.097 14.786 105.707 16.025 103.192 16.025L103.196 16.021Z" fill="#21A038"/>
<path id="Vector_6" d="M52.57 20.267C51.5304 20.8304 50.3652 21.122 49.1827 21.115C45.6444 21.115 43.0752 18.59 43.0752 15.115C43.0752 11.64 45.6424 9.115 49.1807 9.115C50.4593 9.09648 51.7102 9.48794 52.7501 10.232L55.5643 8.158L55.3763 7.987C53.7331 6.543 51.5369 5.78 49.0267 5.78C46.3035 5.78 43.8313 6.698 42.0671 8.366C40.3029 10.034 39.3188 12.403 39.3188 15.015C39.3188 17.627 40.2929 20.03 42.0611 21.758C43.8293 23.486 46.3015 24.447 49.0057 24.447C51.835 24.447 54.3062 23.461 55.9794 21.666L53.4401 19.795L52.57 20.267Z" fill="#21A038"/>
</g>
</g>
<defs>
<clipPath id="clip0_79_1903">
<rect width="111.022" height="30.222" fill="white"/>
</clipPath>
</defs>
</svg>
