<svg width="200" height="200" viewBox="0 0 200 200" fill="none" xmlns="http://www.w3.org/2000/svg">
<g id="arrows 9">
<g clip-path="url(#clip0_143_446)">
<rect width="200" height="200" rx="100" fill="#B278FB"/>
<g id="Group">
<path id="Vector" d="M199.088 97.9963L139.292 46.0015C138.567 45.3715 137.559 45.1812 136.655 45.5057C135.751 45.8291 135.092 46.616 134.933 47.5627L130.618 73.0943H19.5778C18.282 73.0943 17.1756 74.0298 16.9598 75.3067L15.4854 84.0287C15.3551 84.7997 15.5709 85.588 16.0758 86.1852C16.5803 86.7824 17.3218 87.1266 18.1034 87.1266H68.3015L67.2355 94.3679H3.92678C2.63106 94.3679 1.52458 95.3035 1.30878 96.5804L0.0372021 104.104C-0.0931423 104.875 0.12265 105.663 0.627614 106.26C1.1321 106.857 1.87361 107.201 2.65519 107.201H79.5082L78.4432 114.442H30.6575C29.3618 114.442 28.2553 115.378 28.0395 116.655L26.8302 123.808C26.6994 124.579 26.9157 125.367 27.4202 125.964C27.9251 126.562 28.6666 126.906 29.4482 126.906H121.52L117.355 151.552C117.178 152.599 117.641 153.65 118.532 154.225C118.971 154.508 119.471 154.65 119.972 154.65C120.488 154.65 121.006 154.499 121.453 154.198L198.825 102.204C199.511 101.743 199.943 100.988 199.994 100.164C200.047 99.3398 199.711 98.5385 199.088 97.9963Z" fill="white"/>
</g>
</g>
</g>
<defs>
<clipPath id="clip0_143_446">
<rect width="200" height="200" rx="100" fill="white"/>
</clipPath>
</defs>
</svg>
