<svg width="28" height="32" viewBox="0 0 28 32" fill="none" xmlns="http://www.w3.org/2000/svg">
<g id="eye-regular 1" clip-path="url(#clip0_113_937)">
<path id="Vector" d="M13.9998 4.92188C10.8303 4.92188 8.22476 6.74297 6.22685 9.08701C4.35532 11.2896 3.06226 13.9043 2.40115 15.75C3.06226 17.5957 4.35532 20.2104 6.22198 22.413C8.22476 24.757 10.8303 26.5781 13.9998 26.5781C17.1692 26.5781 19.7748 24.757 21.7727 22.413C23.6442 20.2104 24.9373 17.5957 25.5984 15.75C24.9373 13.9043 23.6442 11.2896 21.7775 9.08701C19.7748 6.74297 17.1692 4.92188 13.9998 4.92188ZM4.63726 6.92754C6.92684 4.23281 10.072 1.96875 13.9998 1.96875C17.9275 1.96875 21.0727 4.23281 23.3623 6.92754C25.6373 9.60381 27.1588 12.7969 27.8831 14.9933C28.0435 15.4793 28.0435 16.0207 27.8831 16.5067C27.1588 18.7031 25.6373 21.9023 23.3623 24.5725C21.0727 27.2672 17.9275 29.5312 13.9998 29.5312C10.072 29.5312 6.92684 27.2672 4.63726 24.5725C2.36226 21.9023 0.840734 18.7031 0.121289 16.5067C-0.0391276 16.0207 -0.0391276 15.4793 0.121289 14.9933C0.840734 12.7969 2.36226 9.59766 4.63726 6.92754ZM13.9998 20.6719C16.1484 20.6719 17.8887 18.4693 17.8887 15.75C17.8887 13.0307 16.1484 10.8281 13.9998 10.8281C13.9657 10.8281 13.9366 10.8281 13.9025 10.8281C13.9657 11.1419 13.9998 11.4741 13.9998 11.8125C13.9998 13.9843 12.6046 15.75 10.8887 15.75C10.6213 15.75 10.3588 15.7069 10.1109 15.627C10.1109 15.67 10.1109 15.7069 10.1109 15.75C10.1109 18.4693 11.8512 20.6719 13.9998 20.6719ZM13.9998 7.875C15.65 7.875 17.2326 8.70468 18.3995 10.1815C19.5664 11.6584 20.222 13.6614 20.222 15.75C20.222 17.8386 19.5664 19.8416 18.3995 21.3185C17.2326 22.7953 15.65 23.625 13.9998 23.625C12.3495 23.625 10.7669 22.7953 9.59999 21.3185C8.43309 19.8416 7.77754 17.8386 7.77754 15.75C7.77754 13.6614 8.43309 11.6584 9.59999 10.1815C10.7669 8.70468 12.3495 7.875 13.9998 7.875Z" fill="#B278FB"/>
</g>
<defs>
<clipPath id="clip0_113_937">
<rect width="28" height="31.5" fill="white"/>
</clipPath>
</defs>
</svg>
