<svg width="35" height="45" viewBox="0 0 35 45" fill="none" xmlns="http://www.w3.org/2000/svg">
<g id="arrows 1" clip-path="url(#clip0_88_2062)">
<g id="Group">
<path id="Vector" d="M34.8404 22.0492L24.3762 10.3503C24.2493 10.2086 24.0728 10.1658 23.9146 10.2388C23.7564 10.3116 23.6412 10.4886 23.6132 10.7016L22.8581 16.4462H3.42611C3.19936 16.4462 3.00572 16.6567 2.96796 16.944L2.70995 18.9065C2.68714 19.0799 2.7249 19.2573 2.81327 19.3917C2.90156 19.526 3.03132 19.6035 3.1681 19.6035H11.9528L11.7662 21.2328H0.687186C0.460435 21.2328 0.266801 21.4433 0.229037 21.7306L0.00651037 23.4233C-0.0162999 23.5968 0.0214638 23.7741 0.109832 23.9085C0.198117 24.0428 0.327882 24.1202 0.464659 24.1202H13.9139L13.7276 25.7495H5.36507C5.13831 25.7495 4.94468 25.9601 4.90692 26.2474L4.69529 27.8568C4.67239 28.0302 4.71024 28.2075 4.79853 28.342C4.88689 28.4764 5.01666 28.5538 5.15344 28.5538H21.266L20.5371 34.0992C20.5062 34.3347 20.5872 34.5713 20.7432 34.7007C20.8199 34.7644 20.9075 34.7962 20.9951 34.7962C21.0855 34.7962 21.176 34.7623 21.2542 34.6946L34.7944 22.9958C34.9144 22.8921 34.99 22.7223 34.999 22.5369C35.0083 22.3515 34.9495 22.1712 34.8404 22.0492Z" fill="black"/>
</g>
</g>
<defs>
<clipPath id="clip0_88_2062">
<rect width="35" height="45" fill="white"/>
</clipPath>
</defs>
</svg>
