<svg width="50" height="50" viewBox="0 0 50 50" fill="none" xmlns="http://www.w3.org/2000/svg">
<g clip-path="url(#clip0_202_282)">
<mask id="mask0_202_282" style="mask-type:luminance" maskUnits="userSpaceOnUse" x="0" y="0" width="51" height="50">
<path d="M0 0H50.0004V50H0V0Z" fill="white"/>
</mask>
<g mask="url(#mask0_202_282)">
<path fill-rule="evenodd" clip-rule="evenodd" d="M0 0H75.008V33.2129H0V0Z" fill="#B20000"/>
<path fill-rule="evenodd" clip-rule="evenodd" d="M0 33.2129H75.008V50H0V33.2129Z" fill="#429F00"/>
<path fill-rule="evenodd" clip-rule="evenodd" d="M0 0H8.30655V50H0V0Z" fill="white"/>
<path fill-rule="evenodd" clip-rule="evenodd" d="M0.395508 0.849609H0.791058V1.69922H0.395508V0.849609ZM1.58216 0.849609H2.76881V1.69922H1.58216V0.849609ZM1.97771 0H2.37326V0.849609H1.97771V0ZM3.95546 0H4.35101V0.849609H3.95546V0ZM5.53766 0.849609H6.72431V1.69922H5.53766V0.849609ZM5.93321 0H6.32876V0.849609H5.93321V0ZM1.18661 1.69922H1.97771V2.53906H1.18661V1.69922ZM2.37326 1.69922H3.16436V2.53906H2.37326V1.69922ZM5.14211 1.69922H5.93321V2.53906H5.14211V1.69922ZM6.32876 1.69922H7.11986V2.53906H6.32876V1.69922ZM0.791058 2.53906H1.58216V3.38867H0.791058V2.53906ZM2.76881 2.53906H3.55991V3.38867H2.76881V2.53906ZM4.74656 2.53906H5.53766V3.38867H4.74656V2.53906ZM6.72431 2.53906H7.51541V3.38867H6.72431V2.53906ZM7.51541 0.849609H7.91096V1.69922H7.51541V0.849609ZM0.395508 3.38867H1.18661V4.23828H0.395508V3.38867ZM3.16436 3.38867H3.95546V4.23828H3.16436V3.38867ZM7.11986 3.38867H7.91096V4.23828H7.11986V3.38867ZM0.791058 5.92773H1.58216V6.77734H0.791058V5.92773ZM1.18661 6.77734H1.97771V7.62695H1.18661V6.77734ZM2.76881 5.9375H3.55991V6.77734H2.76881V5.9375ZM2.37326 6.77734H3.16436V7.62695H2.37326V6.77734ZM1.58216 7.62695H2.76881V8.47656H1.58216V7.62695Z" fill="#B20000"/>
<path fill-rule="evenodd" clip-rule="evenodd" d="M1.97775 8.47656H2.3733V9.32617H1.97775V8.47656ZM4.7466 5.9375H5.5377V6.77734H4.7466V5.9375ZM5.14215 6.77734H5.93325V7.62695H5.14215V6.77734ZM6.72435 5.9375H7.51545V6.77734H6.72435V5.9375ZM6.3288 6.77734H7.1199V7.62695H6.3288V6.77734ZM5.5377 7.62695H6.72435V8.47656H5.5377V7.62695ZM5.93325 8.47656H6.3288V9.32617H5.93325V8.47656ZM3.9555 7.61719H4.35105V8.4668H3.9555V7.61719ZM0 7.61719H0.39555V8.4668H0V7.61719ZM7.911 7.61719H8.30655V8.4668H7.911V7.61719ZM1.97775 11.8555H2.3733V12.7051H1.97775V11.8555ZM1.5822 12.7148H2.76885V13.5547H1.5822V12.7148ZM1.18665 13.5547H3.1644V14.4043H1.18665V13.5547ZM5.93325 11.8652H6.3288V12.7148H5.93325V11.8652ZM5.5377 12.7148H6.72435V13.5547H5.5377V12.7148ZM5.14215 13.5547H7.1199V14.4043H5.14215V13.5547ZM5.5377 17.793H7.51545V18.6426H5.5377V17.793ZM4.7466 14.4043H7.51545V15.2539H4.7466V14.4043ZM0.7911 14.4043H3.55995V15.2539H0.7911V14.4043ZM1.18665 18.6426H2.3733V19.4922H1.18665V18.6426ZM0.7911 17.793H2.76885V18.6426H0.7911V17.793ZM6.3288 16.1133H8.30655V16.9629H6.3288V16.1133ZM5.93325 18.6523H7.1199V19.502H5.93325V18.6523Z" fill="#B20000"/>
<path fill-rule="evenodd" clip-rule="evenodd" d="M1.5822 19.4922H1.97775V20.3418H1.5822V19.4922ZM6.3288 19.4922H6.72435V20.3418H6.3288V19.4922ZM0 16.1035H1.97775V16.9531H0V16.1035ZM3.55995 17.793H4.7466V18.6426H3.55995V17.793ZM3.9555 18.6523H4.35105V19.502H3.9555V18.6523ZM2.76885 16.1133H5.5377V16.9629H2.76885V16.1133ZM4.35105 3.38867H5.14215V4.23828H4.35105V3.38867ZM3.55995 4.23828H4.7466V5.08789H3.55995V4.23828ZM3.1644 5.08789H3.9555V5.92773H3.1644V5.08789ZM4.35105 5.08789H5.14215V5.92773H4.35105V5.08789ZM0 4.23828H0.7911V5.08789H0V4.23828ZM0.39555 5.08789H1.18665V5.92773H0.39555V5.08789ZM7.51545 4.23828H8.30655V5.07812H7.51545V4.23828ZM7.1199 5.07812H7.911V5.91797H7.1199V5.07812ZM0 12.6953H0.39555V13.5449H0V12.6953ZM7.911 12.6953H8.30655V13.5449H7.911V12.6953ZM3.55995 19.4824H4.7466V20.332H3.55995V19.4824ZM3.1644 20.332H3.9555V21.1719H3.1644V20.332ZM4.35105 20.332H5.14215V21.1719H4.35105V20.332ZM2.76885 21.1719H3.55995V22.0215H2.76885V21.1719ZM4.7466 21.1719H5.5377V22.0215H4.7466V21.1719ZM2.3733 22.0215H3.1644V22.8711H2.3733V22.0215ZM5.14215 22.0215H5.93325V22.8711H5.14215V22.0215ZM1.97775 22.8809H2.76885V23.7305H1.97775V22.8809ZM5.5377 22.8809H6.3288V23.7305H5.5377V22.8809ZM1.18665 23.7305H2.3733V24.5801H1.18665V23.7305ZM5.93325 23.7305H7.1199V24.5801H5.93325V23.7305ZM6.72435 22.8809H7.51545V23.7305H6.72435V22.8809ZM7.1199 22.0312H7.911V22.8809H7.1199V22.0312ZM7.51545 21.1816H8.30655V22.0312H7.51545V21.1816ZM0.7911 22.8809H1.5822V23.7305H0.7911V22.8809ZM0.39555 22.0312H1.18665V22.8809H0.39555V22.0312ZM0 21.1914H0.7911V22.041H0V21.1914ZM1.5822 24.5898H1.97775V25.4297H1.5822V24.5898ZM6.3288 24.5898H6.72435V25.4297H6.3288V24.5898ZM3.9555 22.0508H4.35105V22.8906H3.9555V22.0508ZM2.76885 24.5898H3.1644V25.4297H2.76885V24.5898ZM5.14215 24.5898H5.5377V25.4297H5.14215V24.5898ZM3.9555 24.5898H4.35105V25.4297H3.9555V24.5898ZM0 24.5898H0.39555V25.4297H0L0 24.5898ZM7.911 24.5898H8.30655V25.4297H7.911V24.5898ZM3.9555 12.7148H4.35105V13.5547H3.9555V12.7148ZM1.97775 4.23828H2.3733V5.08789H1.97775V4.23828ZM5.93325 4.23828H6.3288V5.08789H5.93325V4.23828ZM3.55995 10.166H4.7466V11.0156H3.55995V10.166ZM2.76885 11.0156H3.9555V11.8652H2.76885V11.0156ZM3.1644 11.8652H3.55995V12.7148H3.1644V11.8652ZM2.3733 10.166H3.1644V11.0156H2.3733V10.166ZM2.76885 9.32617H3.9555V10.166H2.76885V9.32617ZM3.1644 8.47656H3.55995V9.32617H3.1644V8.47656ZM4.35105 9.32617H5.5377V10.166H4.35105V9.32617ZM4.7466 8.47656H5.14215V9.32617H4.7466V8.47656ZM5.14215 10.166H5.93325V11.0156H5.14215V10.166ZM4.35105 11.0156H5.5377V11.8652H4.35105V11.0156ZM4.7466 11.8652H5.14215V12.7148H4.7466V11.8652ZM6.3288 10.166H7.1199V11.0156H6.3288V10.166ZM6.72435 9.32617H7.911V10.166H6.72435V9.32617ZM7.51545 10.166H8.30655V11.0156H7.51545V10.166ZM6.72435 11.0156H7.911V11.8652H6.72435V11.0156ZM7.1199 11.8652H7.51545V12.7148H7.1199V11.8652ZM7.1199 8.47656H7.51545V9.32617H7.1199V8.47656ZM0 10.1563H0.7911V11.0059H0V10.1563ZM0.39555 9.31641H1.5822V10.1563H0.39555V9.31641ZM1.18665 10.1563H1.97775V11.0059H1.18665V10.1563ZM0.39555 11.0059H1.5822V11.8555H0.39555V11.0059Z" fill="#B20000"/>
<path fill-rule="evenodd" clip-rule="evenodd" d="M0.7911 11.8652H1.18665V12.7148H0.7911V11.8652ZM0.7911 8.47656H1.18665V9.32617H0.7911V8.47656ZM0.39555 15.2539H1.97775V16.1035H0.39555V15.2539ZM2.3733 15.2539H3.9555V16.1035H2.3733V15.2539ZM4.35105 15.2539H5.93325V16.1035H4.35105V15.2539ZM6.3288 15.2539H7.911V16.1035H6.3288V15.2539ZM3.1644 16.9531H5.14215V17.793H3.1644V16.9531ZM0.39555 16.9531H2.3733V17.793H0.39555V16.9531ZM5.93325 16.9531H7.911V17.793H5.93325V16.9531ZM7.911 20.3418H8.30655V21.1816H7.911V20.3418ZM0 20.3418H0.39555V21.1816H0V20.3418ZM0.39555 49.1504H0.7911V48.3106H0.39555V49.1504ZM1.5822 49.1504H2.76885V48.3106H1.5822V49.1504ZM1.97775 50H2.3733V49.1504H1.97775V50ZM3.9555 50H4.35105V49.1504H3.9555V50ZM5.5377 49.1504H6.72435V48.3008H5.5377V49.1504ZM5.93325 50H6.3288V49.1504H5.93325V50ZM1.18665 48.3008H1.97775V47.4609H1.18665V48.3008ZM2.3733 48.3008H3.1644V47.4609H2.3733V48.3008ZM5.14215 48.3008H5.93325V47.4609H5.14215V48.3008ZM6.3288 48.3008H7.1199V47.4609H6.3288V48.3008ZM2.76885 47.4609H3.55995V46.6113H2.76885V47.4609ZM4.7466 47.4609H5.5377V46.6113H4.7466V47.4609ZM6.72435 47.4609H7.51545V46.6113H6.72435V47.4609ZM7.51545 49.1504H7.911V48.3008H7.51545V49.1504ZM0.39555 46.6113H1.18665V45.7617H0.39555V46.6113ZM3.1644 46.6113H3.9555V45.7617H3.1644V46.6113ZM7.1199 46.6113H7.911V45.7617H7.1199V46.6113ZM0.7911 44.0723H1.5822V43.2227H0.7911V44.0723ZM1.18665 43.2227H1.97775V42.373H1.18665V43.2227ZM2.76885 44.0723H3.55995V43.2227H2.76885V44.0723ZM2.3733 43.2227H3.1644V42.373H2.3733V43.2227ZM1.5822 42.373H2.76885V41.5234H1.5822V42.373ZM1.97775 41.5234H2.3733V40.6836H1.97775V41.5234ZM4.7466 44.0625H5.5377V43.2227H4.7466V44.0625ZM5.14215 43.2227H5.93325V42.373H5.14215V43.2227ZM6.72435 44.0723H7.51545V43.2227H6.72435V44.0723ZM6.3288 43.2227H7.1199V42.373H6.3288V43.2227ZM5.5377 42.373H6.72435V41.5234H5.5377V42.373ZM5.93325 41.5234H6.3288V40.6836H5.93325V41.5234ZM3.9555 42.3828H4.35105V41.5332H3.9555V42.3828ZM0 42.3828H0.39555V41.5332H0V42.3828ZM7.911 42.3828H8.30655V41.5332H7.911V42.3828ZM1.97775 38.1445H2.3733V37.2949H1.97775V38.1445ZM1.5822 37.2852H2.76885V36.4453H1.5822V37.2852ZM1.18665 36.4453H3.1644V35.5957H1.18665V36.4453ZM5.93325 38.1348H6.3288V37.2852H5.93325V38.1348Z" fill="#B20000"/>
<path fill-rule="evenodd" clip-rule="evenodd" d="M5.5377 37.2852H6.72435V36.4453H5.5377V37.2852ZM5.14215 36.4453H7.1199V35.5957H5.14215V36.4453ZM5.5377 32.207H7.51545V31.3477H5.5377V32.207ZM4.7466 35.5957H7.51545V34.7461H4.7466V35.5957ZM0.7911 35.5957H3.55995V34.7461H0.7911V35.5957ZM1.18665 31.3574H2.3733V30.5078H1.18665V31.3574ZM0.7911 32.207H2.76885V31.3477H0.7911V32.207ZM6.3288 33.8867H8.30655V33.0371H6.3288V33.8867ZM5.93325 31.3477H7.1199V30.498H5.93325V31.3477ZM0 33.8867H1.97775V33.0371H0V33.8867ZM3.55995 32.1973H4.7466V31.3477H3.55995V32.1973ZM3.9555 31.3477H4.35105V30.498H3.9555V31.3477ZM2.76885 33.8867H5.5377V33.0371H2.76885V33.8867ZM4.35105 46.6016H5.14215V45.752H4.35105V46.6016ZM3.55995 45.752H4.7466V44.9219H3.55995V45.752ZM3.1644 44.9023H3.9555V44.0527H3.1644V44.9023ZM4.35105 44.9023H5.14215V44.0527H4.35105V44.9023ZM0 45.7617H0.7911V44.9219H0V45.7617ZM0.39555 44.9121H1.18665V44.0723H0.39555V44.9121ZM7.51545 45.7617H8.30655V44.9219H7.51545V45.7617ZM7.1199 44.9121H7.911V44.0723H7.1199V44.9121ZM0 37.3047H0.39555V36.4551H0V37.3047ZM7.911 37.3047H8.30655V36.4551H7.911V37.3047ZM3.1644 29.668H3.9555V28.8281H3.1644V29.668ZM4.35105 29.668H5.14215V28.8281H4.35105V29.668ZM2.76885 28.8281H3.55995V27.9785H2.76885V28.8281ZM4.7466 28.8281H5.5377V27.9785H4.7466V28.8281ZM2.3733 27.9785H3.1644V27.1289H2.3733V27.9785ZM5.14215 27.9785H5.93325V27.1289H5.14215V27.9785ZM1.97775 27.1191H2.76885V26.2695H1.97775V27.1191ZM5.5377 27.1191H6.3288V26.2695H5.5377V27.1191ZM1.18665 26.2695H2.3733V25.4199H1.18665V26.2695ZM5.93325 26.2695H7.1199V25.4199H5.93325V26.2695ZM6.72435 27.1191H7.51545V26.2695H6.72435V27.1191ZM7.1199 27.9687H7.911V27.1191H7.1199V27.9687ZM7.51545 28.8184H8.30655V27.9687H7.51545V28.8184ZM0.7911 27.1191H1.5822V26.2695H0.7911V27.1191ZM0.39555 27.9687H1.18665V27.1191H0.39555V27.9687ZM0 28.8086H0.7911V27.959H0V28.8086ZM1.5822 25.4102H1.97775V24.5703H1.5822V25.4102ZM3.9555 27.9492H4.35105V27.1094H3.9555V27.9492ZM3.9555 37.2754H4.35105V36.4355H3.9555V37.2754ZM1.97775 45.752H2.3733V44.9219H1.97775V45.752ZM5.93325 45.752H6.3288V44.9219H5.93325V45.752ZM3.55995 39.8437H4.7466V38.9941H3.55995V39.8437ZM2.76885 38.9941H3.9555V38.1445H2.76885V38.9941ZM3.1644 38.1445H3.55995V37.2949H3.1644V38.1445ZM2.3733 39.8437H3.1644V38.9941H2.3733V39.8437ZM2.76885 40.6738H3.9555V39.8437H2.76885V40.6738ZM3.1644 41.5234H3.55995V40.6836H3.1644V41.5234ZM4.35105 40.6738H5.5377V39.8437H4.35105V40.6738ZM4.7466 41.5234H5.14215V40.6836H4.7466V41.5234ZM5.14215 39.834H5.93325V38.9844H5.14215V39.834ZM4.35105 38.9844H5.5377V38.1348H4.35105V38.9844ZM4.7466 38.1348H5.14215V37.2852H4.7466V38.1348ZM6.3288 39.8437H7.1199V38.9941H6.3288V39.8437ZM6.72435 40.6738H7.911V39.8437H6.72435V40.6738ZM7.51545 39.834H8.30655V38.9844H7.51545V39.834ZM6.72435 38.9844H7.911V38.1348H6.72435V38.9844ZM7.1199 38.1348H7.51545V37.2852H7.1199V38.1348ZM7.1199 41.5234H7.51545V40.6836H7.1199V41.5234ZM0 39.8437H0.7911V38.9941H0V39.8437ZM0.39555 40.6738H1.5822V39.8437H0.39555V40.6738Z" fill="#B20000"/>
<path fill-rule="evenodd" clip-rule="evenodd" d="M1.18665 39.834H1.97775V38.9844H1.18665V39.834ZM0.39555 38.9844H1.5822V38.1348H0.39555V38.9844ZM0.7911 38.1348H1.18665V37.2852H0.7911V38.1348ZM0.7911 41.5234H1.18665V40.6836H0.7911V41.5234ZM0.39555 34.7461H1.97775V33.8965H0.39555V34.7461ZM2.3733 34.7461H3.9555V33.8965H2.3733V34.7461ZM4.35105 34.7461H5.93325V33.8965H4.35105V34.7461ZM6.3288 34.7461H7.911V33.8965H6.3288V34.7461ZM3.1644 33.0469H5.14215V32.207H3.1644V33.0469ZM0.39555 33.0469H2.3733V32.207H0.39555V33.0469ZM5.93325 33.0469H7.911V32.207H5.93325V33.0469ZM7.911 29.668H8.30655V28.8086H7.911V29.668ZM0 29.668H0.39555V28.8086H0V29.668ZM3.55995 25.4199H3.9555V26.2695H3.55995V25.4199ZM4.35105 25.4199H4.7466V26.2695H4.35105V25.4199ZM4.35105 23.7305H4.7466V24.5801H4.35105V23.7305ZM3.55995 23.7305H3.9555V24.5801H3.55995V23.7305ZM0.7911 46.6113H1.5822V47.4609H0.7911V46.6113ZM6.3288 30.5078H6.72435V29.6582H6.3288V30.5078ZM1.5822 30.5078H1.97775V29.6582H1.5822V30.5078ZM3.55995 29.6582H4.7466V30.5078H3.55995V29.6582Z" fill="#B20000"/>
</g>
</g>
<defs>
<clipPath id="clip0_202_282">
<rect width="50" height="50" rx="25" fill="white"/>
</clipPath>
</defs>
</svg>
