<svg width="25" height="29" viewBox="0 0 25 29" fill="none" xmlns="http://www.w3.org/2000/svg">
<g id="bell-regular 1" clip-path="url(#clip0_295_256)">
<path id="Vector" d="M12.5 0C11.5122 0 10.7143 0.809961 10.7143 1.8125V2.9C6.6406 3.73828 3.5714 7.39727 3.5714 11.7812V13.2199C3.5714 15.7914 2.70645 18.2893 1.12721 20.2943L0.295732 21.3535C-0.0279289 21.7613 -0.0893128 22.3221 0.133901 22.7922C0.357116 23.2623 0.825866 23.5625 1.33926 23.5625H23.6607C24.1741 23.5625 24.6428 23.2623 24.866 22.7922C25.0893 22.3221 25.0279 21.7613 24.7042 21.3535L23.8727 20.3C22.2935 18.2893 21.4285 15.7914 21.4285 13.2199V11.7812C21.4285 7.39727 18.3593 3.73828 14.2857 2.9V1.8125C14.2857 0.809961 13.4877 0 12.5 0ZM12.5 5.4375C15.9542 5.4375 18.75 8.2752 18.75 11.7812V13.2199C18.75 15.933 19.5256 18.5781 20.9654 20.8438H4.03457C5.4743 18.5781 6.24997 15.933 6.24997 13.2199V11.7812C6.24997 8.2752 9.04573 5.4375 12.5 5.4375ZM16.0714 25.375H12.5H8.92854C8.92854 26.3379 9.30243 27.2611 9.97207 27.9408C10.6417 28.6205 11.5513 29 12.5 29C13.4486 29 14.3582 28.6205 15.0279 27.9408C15.6975 27.2611 16.0714 26.3379 16.0714 25.375Z" fill="black"/>
</g>
<defs>
<clipPath id="clip0_295_256">
<rect width="25" height="29" fill="white"/>
</clipPath>
</defs>
</svg>
