<svg width="50" height="50" viewBox="0 0 50 50" fill="none" xmlns="http://www.w3.org/2000/svg">
<g clip-path="url(#clip0_57_1253)">
<path d="M0 0H16.6641V50H0V0Z" fill="#007A5E"/>
<path d="M16.6641 0H33.3359V50H16.6641V0Z" fill="#CE1126"/>
<path d="M33.3359 0H50V50H33.3359V0Z" fill="#FCD116"/>
<path d="M24.9997 19.0741L23.6108 24.7037L25.7219 25.6667L24.9997 19.0741Z" fill="#FCD116"/>
<path d="M24.9998 19.0741L26.3887 24.7037L24.2776 25.6667L24.9998 19.0741Z" fill="#FCD116"/>
<path d="M29.2234 22.7908L24.7805 23.6378L24.7566 26.1218L29.2234 22.7908Z" fill="#FCD116"/>
<path d="M29.2204 22.9722L25.6481 26.5857L24.301 24.8647L29.2204 22.9722Z" fill="#FCD116"/>
<path d="M27.5562 29.7521L26.3268 24.1332L24.1217 25.1498L27.5562 29.7521Z" fill="#FCD116"/>
<path d="M27.583 29.7132L23.9943 26.4333L25.3753 23.8946L27.583 29.7132Z" fill="#FCD116"/>
<path d="M22.4165 29.7132L26.0052 26.4333L24.6243 23.8946L22.4165 29.7132Z" fill="#FCD116"/>
<path d="M22.4433 29.7521L23.6727 24.1332L25.8779 25.1498L22.4433 29.7521Z" fill="#FCD116"/>
<path d="M20.7791 22.9723L24.3514 26.5857L25.6986 24.8647L20.7791 22.9723Z" fill="#FCD116"/>
<path d="M20.7761 22.7908L25.219 23.6378L25.2429 26.1218L20.7761 22.7908Z" fill="#FCD116"/>
</g>
<defs>
<clipPath id="clip0_57_1253">
<rect width="50" height="50" rx="25" fill="white"/>
</clipPath>
</defs>
</svg>
