<svg width="120" height="160" viewBox="0 0 120 160" fill="none" xmlns="http://www.w3.org/2000/svg">
<g id="xmark-solid 1">
<path id="Vector" d="M107.063 47.0625C110.969 43.1563 110.969 36.8125 107.063 32.9062C103.156 29 96.8125 29 92.9062 32.9062L60 65.8438L27.0625 32.9375C23.1562 29.0312 16.8125 29.0312 12.9062 32.9375C9 36.8437 9 43.1875 12.9062 47.0937L45.8438 80L12.9375 112.937C9.03125 116.844 9.03125 123.188 12.9375 127.094C16.8438 131 23.1875 131 27.0938 127.094L60 94.1562L92.9375 127.062C96.8438 130.969 103.188 130.969 107.094 127.062C111 123.156 111 116.812 107.094 112.906L74.1562 80L107.063 47.0625Z" fill="#E30016"/>
</g>
</svg>
