<svg width="18" height="19" viewBox="0 0 18 19" fill="none" xmlns="http://www.w3.org/2000/svg">
<g clip-path="url(#clip0_701_408)">
<path d="M15.4286 12.4688H7.71429C7.36071 12.4688 7.07143 12.2016 7.07143 11.875V2.375C7.07143 2.04844 7.36071 1.78125 7.71429 1.78125H13.3433L16.0714 4.30098V11.875C16.0714 12.2016 15.7821 12.4688 15.4286 12.4688ZM7.71429 14.25H15.4286C16.8469 14.25 18 13.185 18 11.875V4.30098C18 3.82969 17.7951 3.37695 17.4335 3.04297L14.7094 0.523242C14.3478 0.189258 13.8576 0 13.3473 0H7.71429C6.29598 0 5.14286 1.06504 5.14286 2.375V11.875C5.14286 13.185 6.29598 14.25 7.71429 14.25ZM2.57143 4.75C1.15313 4.75 0 5.81504 0 7.125V16.625C0 17.935 1.15313 19 2.57143 19H10.2857C11.704 19 12.8571 17.935 12.8571 16.625V15.4375H10.9286V16.625C10.9286 16.9516 10.6393 17.2188 10.2857 17.2188H2.57143C2.21786 17.2188 1.92857 16.9516 1.92857 16.625V7.125C1.92857 6.79844 2.21786 6.53125 2.57143 6.53125H3.85714V4.75H2.57143Z" fill="black"/>
</g>
<defs>
<clipPath id="clip0_701_408">
<rect width="18" height="19" fill="white"/>
</clipPath>
</defs>
</svg>
