<svg width="80" height="80" viewBox="0 0 80 80" fill="none" xmlns="http://www.w3.org/2000/svg">
<path d="M49.9996 33.0005C49.9996 32.7352 49.8942 32.4809 49.7067 32.2934C49.5191 32.1058 49.2648 32.0005 48.9996 32.0005L34.9996 32.0005C34.8554 32.0005 34.7129 32.0317 34.5819 32.0919C34.4509 32.1521 34.3344 32.24 34.2406 32.3495L28.2406 39.3495C28.0856 39.5306 28.0005 39.7611 28.0005 39.9995C28.0005 40.2378 28.0856 40.4683 28.2406 40.6495L34.2406 47.6495C34.3342 47.7593 34.4506 47.8475 34.5816 47.9081C34.7126 47.9687 34.8552 48.0002 34.9996 48.0005H48.9996C49.2648 48.0005 49.5191 47.8951 49.7067 47.7076C49.8942 47.52 49.9996 47.2657 49.9996 47.0005V33.0005ZM35.4596 46.0005L30.3166 40.0005L35.4596 34.0005L47.9996 34.0005V46.0005L35.4596 46.0005Z" fill="#1E1E1E"/>
<path d="M40.9996 38.5865L39.2066 36.7935C39.018 36.6113 38.7653 36.5105 38.5032 36.5128C38.241 36.5151 37.9901 36.6203 37.8047 36.8057C37.6193 36.9911 37.5142 37.2419 37.5119 37.5041C37.5096 37.7663 37.6104 38.0189 37.7926 38.2075L39.5856 40.0005L37.7926 41.7935C37.6104 41.9821 37.5096 42.2347 37.5119 42.4969C37.5142 42.7591 37.6193 43.0099 37.8047 43.1953C37.9901 43.3807 38.241 43.4859 38.5032 43.4882C38.7653 43.4904 39.018 43.3896 39.2066 43.2075L40.9996 41.4145L42.7926 43.2075C42.9812 43.3896 43.2338 43.4904 43.496 43.4882C43.7582 43.4859 44.009 43.3807 44.1944 43.1953C44.3798 43.0099 44.4849 42.7591 44.4872 42.4969C44.4895 42.2347 44.3887 41.9821 44.2066 41.7935L42.4136 40.0005L44.2066 38.2075C44.3021 38.1152 44.3782 38.0049 44.4307 37.8829C44.4831 37.7609 44.5106 37.6297 44.5118 37.4969C44.513 37.3641 44.4877 37.2324 44.4374 37.1095C44.3871 36.9866 44.3128 36.875 44.2189 36.7811C44.1251 36.6872 44.0134 36.6129 43.8905 36.5627C43.7676 36.5124 43.6359 36.4871 43.5032 36.4882C43.3704 36.4894 43.2392 36.517 43.1171 36.5694C42.9951 36.6218 42.8848 36.698 42.7926 36.7935L40.9996 38.5865Z" fill="#1E1E1E"/>
</svg>
