<svg width="20" height="20" viewBox="0 0 20 20" fill="none" xmlns="http://www.w3.org/2000/svg">
<g id="pen-solid (1) 1" clip-path="url(#clip0_122_236)">
<path id="Vector" d="M14.1677 0.753906L12.2771 2.64453L17.3552 7.72266L19.2458 5.83203C20.2224 4.85547 20.2224 3.27344 19.2458 2.29688L17.7068 0.753906C16.7302 -0.222656 15.1482 -0.222656 14.1716 0.753906H14.1677ZM11.3943 3.52734L2.28879 12.6367C1.88254 13.043 1.58567 13.5469 1.4216 14.0977L0.0387918 18.7969C-0.0588645 19.1289 0.0309793 19.4844 0.273167 19.7266C0.515354 19.9688 0.870823 20.0586 1.19895 19.9648L5.89817 18.582C6.44895 18.418 6.95285 18.1211 7.3591 17.7148L16.4724 8.60547L11.3943 3.52734Z" fill="black"/>
</g>
<defs>
<clipPath id="clip0_122_236">
<rect width="20" height="20" fill="white"/>
</clipPath>
</defs>
</svg>
