<svg width="50" height="50" viewBox="0 0 50 50" fill="none" xmlns="http://www.w3.org/2000/svg">
<g id="envelope-regular 1">
<path id="Vector" d="M6.25 10.9375C5.39062 10.9375 4.6875 11.6406 4.6875 12.5V14.6582L21.5332 28.4863C23.5547 30.1465 26.4551 30.1465 28.4766 28.4863L45.3125 14.6582V12.5C45.3125 11.6406 44.6094 10.9375 43.75 10.9375H6.25ZM4.6875 20.7227V37.5C4.6875 38.3594 5.39062 39.0625 6.25 39.0625H43.75C44.6094 39.0625 45.3125 38.3594 45.3125 37.5V20.7227L31.4453 32.1094C27.6953 35.1855 22.2949 35.1855 18.5547 32.1094L4.6875 20.7227ZM0 12.5C0 9.05273 2.80273 6.25 6.25 6.25H43.75C47.1973 6.25 50 9.05273 50 12.5V37.5C50 40.9473 47.1973 43.75 43.75 43.75H6.25C2.80273 43.75 0 40.9473 0 37.5V12.5Z" fill="black"/>
</g>
</svg>
