<svg width="50" height="50" viewBox="0 0 50 50" fill="none" xmlns="http://www.w3.org/2000/svg">
<g clip-path="url(#clip0_57_1402)">
<path d="M0 0H50V50H0V0Z" fill="#E32118"/>
<path d="M0 0H50V33.3333H0V0Z" fill="white"/>
<path d="M0 0H50V16.6667H0V0Z" fill="#3E9A00"/>
<path d="M0 0V50L14.0625 25L0 0Z" fill="#0073CE"/>
<path d="M22 19.9792H27.9844V28.3333C27.9844 31.1458 25.2344 28.9792 25 30.4792C24.5937 28.9375 22.0156 31.1667 22.0156 28.1667L22 19.9792Z" fill="white" stroke="black"/>
<path d="M25.4219 29.1458C25.4219 29.1458 25.3438 29.25 25.2031 29.1667C25.0625 29.0833 25.0469 23.8125 25.0469 23.8125C25.3594 23.3542 25.6094 23.2083 25.6094 23.2083L25.7969 23.4167C25.0938 23.8958 25.1562 24.5833 25.2187 25.7708C25.2344 26.2083 25.2344 26.7708 25.3125 27.3125C25.4219 28 25.6406 28.5833 25.6562 29.0208C25.6719 29.2917 25.4219 29.1458 25.4219 29.1458Z" fill="#73452B" stroke="black" stroke-width="0.2"/>
<path d="M24.9375 23.0833H25.2187C24.9844 26.1042 25.1875 27.8958 25.1875 28.7708C25.1875 29.0625 25.3125 29.1667 25.2969 29.1667C25.0156 29.5833 24.875 29.1458 24.875 29.1458L24.9375 23.0833Z" fill="#73452B" stroke="black" stroke-width="0.2"/>
<path d="M24.4999 29.1458C24.2343 29.3125 24.203 28.9792 24.2186 28.9375C24.7968 27.375 25.0468 23.9375 24.5155 23.5625L24.5468 23.2292C24.7499 23.3125 24.9374 23.6667 24.9374 23.6667C25.0155 27.5208 24.9374 29.1042 24.8905 29.1667C24.6093 29.5625 24.4999 29.1042 24.4843 29.0625" fill="#A36629"/>
<path d="M24.4999 29.1458C24.2343 29.3125 24.203 28.9792 24.2186 28.9375C24.7968 27.375 25.0468 23.9375 24.5155 23.5625L24.5468 23.2292C24.7499 23.3125 24.9374 23.6667 24.9374 23.6667C25.0155 27.5208 24.9374 29.1042 24.8905 29.1667C24.6093 29.5625 24.4999 29.1042 24.4843 29.0625" stroke="black" stroke-width="0.2"/>
<path d="M24.4844 29.0833C24.4375 28.75 24.8906 27.8958 24.8594 27M25.25 27.7292C25.3906 28.25 25.4531 28.7083 25.4219 29.1458" stroke="black" stroke-width="0.2"/>
<path d="M25.8589 21.6667C25.9527 21.5208 25.9527 21.5208 26.1245 21.5208C26.1558 21.2083 26.5464 21.2083 26.5777 21.6042C26.8902 21.5208 26.9527 21.7708 26.8277 22.0208C27.1245 21.9167 27.3902 22.0208 27.312 22.4792C27.8433 22.6667 27.6402 23.1667 27.4058 23.2708C27.3745 23.5833 27.1558 23.6875 26.8589 23.5625C26.4839 23.9167 26.2652 23.7917 26.0933 23.4375C25.6714 23.5208 25.6402 23.3958 25.4527 23.0833C25.1245 23.2708 25.062 23.2708 24.7808 23.0417C24.7652 23.3333 24.687 23.25 24.5464 23.2292C24.562 23.6042 24.4527 23.7708 24.2027 23.6458C24.3902 24.1667 23.9058 24.3958 23.6714 23.9583C23.4527 23.9792 23.437 23.8958 23.3277 23.7917C23.2339 24.2083 22.8902 24.1458 22.8277 23.9167C22.3902 23.8333 22.437 23.5208 22.7964 23.5C22.8277 23.1667 23.0464 23.2292 23.187 23.2708C23.2027 23.0625 23.2964 23.1042 23.3745 23.1458C23.3277 23 23.3589 22.9167 23.4995 22.875C23.2964 22.5208 23.4214 22.3958 23.6245 22.2708C23.5152 21.9375 23.7027 21.9583 23.8433 21.9375C23.8277 21.5833 23.9058 21.5208 24.187 21.4792C24.1558 21.3542 24.2027 21.25 24.3589 21.25C24.2652 20.8958 24.3902 20.8125 24.6714 20.875C24.7183 20.3542 25.5464 20.6042 25.4839 21.3125C25.7183 21.3542 25.7964 21.4167 25.8589 21.6667Z" fill="#009A3B" stroke="black" stroke-width="0.2"/>
<path d="M24.1875 21.4792C24.25 21.5208 24.3281 21.4792 24.3437 21.7083C24.4687 21.4167 24.625 21.5833 24.625 21.9167M25.4844 21.3125C25.4219 21.4375 25.1875 21.4375 25.2187 21.7708C25.1406 21.625 24.9844 21.5833 24.9219 21.7292M25.8594 21.6667C25.8594 21.75 25.8437 22 25.7812 22.125M26.8281 22.0208C26.8437 22.0417 26.6094 22.0208 26.5 22.125M27.4062 23.2708C27.3437 23.2292 27.2187 23.125 27.125 23.2917C27.125 23.2083 27.125 22.9792 26.9531 22.9792M26.8594 23.5625C26.8594 23.3542 26.8281 23.2917 26.7969 23.2292M26.3437 23.2708C26.2187 23.1458 26.0937 23.3333 26.0937 23.4375M25.4375 23.0833C25.4375 23 25.3906 22.8333 25.5 22.7708M23.6562 23.9583C23.6875 23.75 23.7969 23.75 23.7812 23.6458M23.7812 23.6458C23.7656 23.4792 23.625 23.3333 23.4531 23.5625M23.7812 23.6458C23.875 23.6042 23.9687 23.625 24 23.6875M23.5156 22.875C23.5781 22.7917 23.7344 22.8125 23.8281 22.875M23.8281 22.375C23.9062 22.375 24.0469 22.3333 24.0937 22.5208C24.2656 22.1667 24.3906 22.2083 24.4219 22.2917M24.7344 22.25C24.8594 22.1875 25.0781 22.3542 25.2031 22.6458C25.2656 22.4167 25.3594 22.4583 25.4531 22.4375M26.0469 22.6458C26.25 22.5208 26.375 22.7708 26.4375 22.875C26.5312 22.7083 26.6094 22.7083 26.7031 22.7083M24.1562 23.1458C24.2031 23.0417 24.3125 23.0208 24.3906 23.0833C24.375 22.8958 24.4687 22.8125 24.5312 22.8542" stroke="black" stroke-width="0.2"/>
<path d="M24.7969 18.8021L24.4531 18.8229L24.2812 19.2396L24.0937 18.8437L23.75 18.8646L23.9063 18.4479L23.7188 18.0625L24.0781 18.0417L24.2344 17.625L24.4219 18.0208L24.7656 18L24.6094 18.4167L24.7969 18.8021ZM23.3281 18.9583L22.9844 19.0625L22.8906 19.5104L22.6406 19.1771L22.3125 19.2813L22.4062 18.8437L22.1719 18.5104L22.5 18.3958L22.5938 17.9479L22.8437 18.2813L23.1875 18.1771L23.0781 18.625L23.3281 18.9583ZM21.9062 19.3437L21.5937 19.5521L21.5781 20.0104L21.2812 19.7604L20.9687 19.9687L21 19.5L20.7031 19.25L21.0156 19.0417L21.0469 18.5729L21.3281 18.8333L21.6406 18.625L21.625 19.0833L21.9062 19.3437ZM25.25 18.8021L25.5938 18.8229L25.75 19.2396L25.9375 18.8437L26.2812 18.8646L26.125 18.4479L26.3125 18.0625L25.9688 18.0417L25.7969 17.625L25.6094 18.0208L25.2656 18L25.4219 18.4167L25.25 18.8021ZM26.7188 18.9583L27.0469 19.0625L27.1406 19.5104L27.3906 19.1771L27.7187 19.2813L27.625 18.8437L27.875 18.5104L27.5312 18.3958L27.4375 17.9479L27.1875 18.2813L26.8594 18.1771L26.9531 18.625L26.7188 18.9583ZM28.125 19.3437L28.4375 19.5521L28.4531 20.0104L28.75 19.7604L29.0625 19.9687L29.0469 19.5L29.3281 19.25L29.0156 19.0417L29 18.5729L28.7031 18.8333L28.3906 18.625L28.4219 19.0833L28.125 19.3437Z" fill="#FFD700" stroke="black" stroke-width="0.7"/>
<path d="M28.5469 28.1667L28.9375 28.9167L29.2969 28.2083L29.0469 27.6042L28.5469 28.1667ZM26.0625 30.3542L26.0938 31.1042C26.0938 31.1042 26.25 31.1042 26.3906 31.0417C26.5156 30.9792 26.625 30.8542 26.625 30.8542L26.6094 30.4583L26.0625 30.3542ZM23.9688 30.3542L23.9375 31.0833C23.9375 31.0833 23.7969 31.0833 23.6562 31.0417C23.5312 31 23.4219 30.8958 23.4219 30.8958L23.2656 30.3958L23.9688 30.3542ZM21.4531 28.1667L21.0469 28.9167L20.6094 27.9583L20.9375 27.5L21.4531 28.1667Z" fill="white" stroke="black" stroke-width="0.7"/>
<path d="M23.4062 31.8542C23.4062 32.5625 26.625 32.5625 26.625 31.8542V30.8542C26.625 31.375 23.4062 31.2708 23.4062 30.8542V31.8542Z" fill="white" stroke="black" stroke-width="0.7"/>
<path d="M20.5312 29.5417C20.8125 31.4583 23.4063 31.5 23.4063 31.5V30.8542C23.3438 30.6042 23.4531 30.5208 23.875 30.4375C24.0469 30.4167 23.9687 30.0833 23.9687 30.0833C23.9687 30.0833 22.8438 30.3542 22.0469 29.9375C20.9688 29.3542 20.8125 28.2292 20.8125 28.2292C20.8125 28.2292 20.7344 29.1042 20.5312 29.5417ZM29.4844 29.5417C29.2188 31.4583 26.625 31.5 26.625 31.5V30.8542C26.6719 30.6042 26.5625 30.5208 26.1406 30.4375C25.9688 30.4167 26.0625 30.0833 26.0625 30.0833C26.0625 30.0833 27.1875 30.3542 27.9844 29.9375C29.0469 29.3542 29.1719 28.2292 29.1719 28.2292C29.1719 28.2292 29.2812 29.1042 29.4844 29.5417Z" fill="white" stroke="black" stroke-width="0.7"/>
<path d="M20.7342 28.8125C20.0154 28.2917 20.5779 27.75 20.6404 26.2083C20.7498 27.1458 21.5467 27.5417 21.4529 28.1458C21.1248 28.1667 20.9685 27.5 20.8123 28.2292L20.7342 28.8125ZM29.281 28.8125C29.9998 28.2708 29.406 27.75 29.3435 26.2083C29.2342 27.1458 28.4529 27.5417 28.5467 28.1458C28.8592 28.1667 29.0154 27.5 29.1717 28.2292L29.281 28.7917V28.8125Z" fill="white" stroke="black" stroke-width="0.7"/>
<path d="M21.1716 29.5208L21.2497 29.6042L21.0778 29.8542C20.9997 29.9583 20.9919 30.0208 21.0388 30.0833C21.0934 30.1563 21.1403 30.125 21.195 30.0417L21.3903 29.7708L21.4528 29.8542L21.2653 30.1458C21.1638 30.3021 21.07 30.2708 20.9841 30.1667C20.9216 30.0833 20.8747 29.9583 20.9841 29.8021L21.1716 29.5208ZM21.4841 29.875L21.5622 29.9375L21.5466 30.4375L21.7184 30.0833L21.7966 30.1458L21.5466 30.6875L21.4528 30.625L21.4684 30.125L21.2966 30.4792L21.2184 30.4167L21.4841 29.875ZM21.6247 30.75L21.8434 30.1667L21.9216 30.2292L21.7184 30.7917L21.6247 30.75ZM21.9684 30.25L21.7966 30.8542L21.9684 30.9375C22.1247 31.0104 22.2028 30.9167 22.2497 30.7396C22.3044 30.5521 22.2809 30.4271 22.1247 30.3333L21.9684 30.25ZM22.0309 30.3958C22.1872 30.4688 22.2028 30.5521 22.1559 30.7083C22.1091 30.8438 22.0778 30.8958 21.9216 30.7917L22.0309 30.3958ZM22.4841 30.4792L22.2028 31.0417L22.3122 31.0833L22.3747 30.9375L22.5622 31L22.5778 31.1458L22.6872 31.1667L22.5778 30.5L22.4841 30.4792ZM22.5153 30.625L22.5466 30.875L22.4216 30.8542L22.5153 30.625ZM22.7497 30.5313L22.7341 31.1771H22.9138C23.0856 31.1875 23.1325 31.0729 23.1403 30.8646C23.1403 30.6771 23.0856 30.5521 22.9138 30.5521L22.7497 30.5313ZM22.8434 30.6354C23.0153 30.6458 23.0388 30.7188 23.0388 30.875C23.0309 31.0313 23.0075 31.0938 22.8356 31.0625V30.6458L22.8434 30.6354ZM24.3903 31.4375V32.1042H24.4997V31.8542C24.4997 31.8542 24.5934 31.8542 24.6716 31.8333C24.7263 31.8125 24.7731 31.7604 24.7731 31.625C24.7731 31.5 24.7184 31.4375 24.6247 31.4375H24.3903ZM24.4997 31.5417H24.6091C24.695 31.5417 24.6872 31.7292 24.6091 31.7292H24.4997V31.5417ZM24.9528 31.4375L24.7497 32.1042H24.8591L24.9059 31.9375H25.1091L25.1559 32.1042H25.2653L25.0622 31.4375H24.9528ZM24.9997 31.5833L25.0778 31.8333H24.9372L24.9997 31.5833ZM25.2653 31.9792L25.5309 31.5417H25.2966V31.4375H25.6716V31.5417L25.3903 31.9792H25.6716V32.1042H25.2653V31.9792ZM26.8434 30.6875L26.9372 30.6667L26.9841 31.0417C26.9997 31.1771 26.9528 31.2604 26.8825 31.3021C26.8044 31.3438 26.695 31.3021 26.6872 31.125L26.7653 31.1042C26.7809 31.2083 26.8122 31.2188 26.8434 31.2083C26.8825 31.1875 26.8981 31.125 26.8903 31.0625L26.8434 30.6875ZM26.9997 30.6458L27.0856 30.625L27.1325 30.9375C27.1481 31.0729 27.1794 31.125 27.2497 31.1146C27.3278 31.0938 27.3356 31.0313 27.32 30.9063L27.2653 30.5833L27.3591 30.5625L27.4216 30.9063C27.4528 31.1146 27.3747 31.1875 27.2653 31.2188C27.1794 31.2396 27.0778 31.2188 27.0466 31.0104L26.9997 30.6458ZM27.4841 30.9375L27.5622 30.8958C27.6013 30.9896 27.6559 30.9792 27.7028 30.9583C27.7653 30.9167 27.7809 30.8438 27.7419 30.8125C27.695 30.7813 27.5856 30.8333 27.5309 30.8125C27.4606 30.7708 27.4294 30.7083 27.4372 30.6354C27.4372 30.5313 27.4997 30.4896 27.57 30.4583C27.6481 30.4271 27.7263 30.4375 27.7809 30.5625L27.6872 30.6042C27.6559 30.5313 27.6091 30.5417 27.5778 30.5625C27.5466 30.5833 27.4997 30.6146 27.5309 30.6667C27.5466 30.7188 27.6638 30.6875 27.7263 30.6875C27.7888 30.6875 27.8356 30.75 27.8434 30.8229C27.8591 30.9375 27.8278 31 27.7263 31.0521C27.6091 31.1146 27.4997 31.0521 27.4841 30.9375ZM27.9059 30.4167L27.7809 30.5L27.7497 30.3958L28.0934 30.2083L28.1247 30.2917L27.9997 30.375L28.1403 30.8333L28.0622 30.8958L27.9059 30.4167ZM28.1091 30.1875L28.1872 30.125L28.4059 30.6667L28.3278 30.7292L28.1091 30.1875ZM28.6403 30.2292L28.7341 30.1875C28.7461 30.2269 28.7504 30.2698 28.7466 30.312C28.7427 30.3543 28.7309 30.3946 28.7121 30.429C28.6933 30.4634 28.6683 30.4909 28.6393 30.5088C28.6103 30.5267 28.5784 30.5344 28.5466 30.5313C28.3122 30.5313 28.2809 30.1771 28.32 30.0625C28.3825 29.8646 28.5544 29.875 28.6325 29.9792L28.5544 30.0625C28.5075 29.9792 28.3981 30.0313 28.3981 30.1042C28.3878 30.1651 28.3929 30.2288 28.4127 30.2854C28.4325 30.342 28.4658 30.3882 28.5075 30.4167C28.5856 30.4583 28.695 30.3333 28.6403 30.2292ZM28.5934 29.7917L28.6716 29.7083L28.9528 30.2083L28.8747 30.2917L28.5934 29.7917ZM28.8903 29.4792L28.8122 29.5625L28.9841 30.1875L29.0622 30.0833L29.0153 29.9583L29.1559 29.7917L29.2497 29.8542L29.3278 29.7708L28.8903 29.4792ZM28.9216 29.625L29.0778 29.7292L28.9841 29.8542L28.9216 29.625Z" fill="black"/>
</g>
<defs>
<clipPath id="clip0_57_1402">
<rect width="50" height="50" rx="25" fill="white"/>
</clipPath>
</defs>
</svg>
