<svg width="20" height="17" viewBox="0 0 20 17" fill="none" xmlns="http://www.w3.org/2000/svg">
<path opacity="0.5" d="M1.51097 1.02942L4.89618 3.93241M18.4882 15.5882L15.1033 12.6855M11.7679 13.8287C11.1953 13.9219 10.6043 13.9706 10 13.9706C5.77678 13.9706 2.20185 11.5903 1 8.3088C1.32719 7.41548 1.83024 6.58895 2.47436 5.85905M7.99879 6.59306C8.51084 6.15395 9.21822 5.88236 9.99958 5.88236C11.5623 5.88236 12.8291 6.96873 12.8291 8.30883C12.8291 8.97888 12.5124 9.5855 12.0004 10.0246M7.99879 6.59306L12.0004 10.0246M7.99879 6.59306L4.89618 3.93241M12.0004 10.0246L4.89618 3.93241M12.0004 10.0246L15.1033 12.6855M4.89618 3.93241C6.36738 3.11905 8.11941 2.64707 9.99999 2.64707C14.2232 2.64707 17.7982 5.02736 19 8.30886C18.3333 10.1293 16.9362 11.6723 15.1033 12.6855" stroke="#333333" stroke-linecap="round" stroke-linejoin="round"/>
</svg>
