<svg width="50" height="41" viewBox="0 0 50 41" fill="none" xmlns="http://www.w3.org/2000/svg">
<g clip-path="url(#clip0_1223_527)">
<path d="M0 0H50V50H0V0Z" fill="#00ABC2"/>
<path d="M27.0158 27.73C29.8034 27.73 32.0633 24.7169 32.0633 21C32.0633 17.2831 29.8034 14.27 27.0158 14.27C24.2281 14.27 21.9683 17.2831 21.9683 21C21.9683 24.7169 24.2281 27.73 27.0158 27.73Z" fill="#FFEC2D"/>
<path d="M27.016 13.355C27.316 13.35 27.4285 13.1 27.4285 12.8C27.4285 12.4 27.016 10.495 27.016 10.495C27.016 10.495 26.6035 12.4 26.6035 12.8C26.6035 13.1 26.716 13.355 27.016 13.355Z" fill="#FFEC2D"/>
<path d="M32.7495 21C32.7533 21.4 32.9408 21.55 33.1658 21.55C33.4658 21.55 34.8945 21 34.8945 21C34.8945 21 33.4658 20.45 33.1658 20.45C32.9408 20.45 32.7495 20.6 32.7495 21Z" fill="#FFEC2D"/>
<path d="M27.0157 28.645C26.7157 28.65 26.6032 28.9 26.6032 29.2C26.6032 29.6 27.0157 31.505 27.0157 31.505C27.0157 31.505 27.4282 29.6 27.4282 29.2C27.4282 28.9 27.3157 28.645 27.0157 28.645Z" fill="#FFEC2D"/>
<path d="M21.2822 21C21.2785 20.6 21.091 20.45 20.866 20.45C20.566 20.45 19.1372 21 19.1372 21C19.1372 21 20.566 21.55 20.866 21.55C21.091 21.55 21.2822 21.4 21.2822 21Z" fill="#FFEC2D"/>
<path d="M29.2184 13.8603C29.5032 14.0648 29.6797 13.9255 29.764 13.6644C29.8764 13.3163 30.0224 11.3713 30.0224 11.3713C30.0224 11.3713 29.0973 12.7421 28.9849 13.0902C28.9006 13.3513 28.9351 13.6515 29.2184 13.8603Z" fill="#FFEC2D"/>
<path d="M32.3018 23.8387C32.1987 24.1473 32.3339 24.3731 32.5441 24.5061C32.8244 24.6835 34.306 25.107 34.306 25.107C34.306 25.107 33.1177 23.841 32.8374 23.6636C32.6272 23.5306 32.4085 23.5324 32.3018 23.8387Z" fill="#FFEC2D"/>
<path d="M24.8128 28.1397C24.5281 27.9352 24.3516 28.0745 24.2673 28.3356C24.1548 28.6837 24.0089 30.6287 24.0089 30.6287C24.0089 30.6287 24.9339 29.2579 25.0464 28.9098C25.1307 28.6487 25.0961 28.3485 24.8128 28.1397Z" fill="#FFEC2D"/>
<path d="M21.7294 18.1613C21.8326 17.8527 21.6974 17.6269 21.4871 17.4939C21.2068 17.3165 19.7253 16.893 19.7253 16.893C19.7253 16.893 20.9135 18.159 21.1938 18.3364C21.4041 18.4694 21.6227 18.4676 21.7294 18.1613Z" fill="#FFEC2D"/>
<path d="M31.0699 15.5942C31.2846 15.8735 31.4968 15.8028 31.6559 15.5906C31.868 15.3078 32.5866 13.5718 32.5866 13.5718C32.5866 13.5718 31.2846 14.53 31.0725 14.8128C30.9134 15.0249 30.8577 15.3113 31.0699 15.5942Z" fill="#FFEC2D"/>
<path d="M31.07 26.4058C30.8605 26.6922 30.9135 26.975 31.0726 27.1872C31.2848 27.47 32.5867 28.4282 32.5867 28.4282C32.5867 28.4282 31.8681 26.6922 31.656 26.4094C31.4969 26.1972 31.2821 26.123 31.07 26.4058Z" fill="#FFEC2D"/>
<path d="M22.9614 26.4058C22.7466 26.1265 22.5345 26.1972 22.3754 26.4093C22.1632 26.6922 21.4446 28.4281 21.4446 28.4281C21.4446 28.4281 22.7466 27.47 22.9587 27.1872C23.1178 26.975 23.1735 26.6887 22.9614 26.4058Z" fill="#FFEC2D"/>
<path d="M22.9613 15.5942C23.1707 15.3078 23.1177 15.025 22.9586 14.8128C22.7465 14.53 21.4445 13.5718 21.4445 13.5718C21.4445 13.5718 22.1631 15.3078 22.3752 15.5906C22.5343 15.8028 22.7491 15.877 22.9613 15.5942Z" fill="#FFEC2D"/>
<path d="M32.3017 18.1613C32.4118 18.4654 32.627 18.4694 32.8373 18.3364C33.1176 18.159 34.3058 16.893 34.3058 16.893C34.3058 16.893 32.8243 17.3165 32.544 17.4939C32.3337 17.6269 32.195 17.8549 32.3017 18.1613Z" fill="#FFEC2D"/>
<path d="M29.2181 28.1397C28.9362 28.3528 28.9002 28.6487 28.9846 28.9098C29.097 29.2579 30.0221 30.6287 30.0221 30.6287C30.0221 30.6287 29.8761 28.6837 29.7637 28.3356C29.6794 28.0745 29.5014 27.9309 29.2181 28.1397Z" fill="#FFEC2D"/>
<path d="M21.7296 23.8387C21.6194 23.5346 21.4042 23.5306 21.194 23.6636C20.9137 23.841 19.7254 25.107 19.7254 25.107C19.7254 25.107 21.207 24.6835 21.4873 24.5061C21.6975 24.3731 21.8362 24.1451 21.7296 23.8387Z" fill="#FFEC2D"/>
<path d="M24.8131 13.8603C25.095 13.6472 25.131 13.3513 25.0467 13.0902C24.9342 12.7421 24.0092 11.3713 24.0092 11.3713C24.0092 11.3713 24.1551 13.3163 24.2676 13.6644C24.3519 13.9255 24.5298 14.0691 24.8131 13.8603Z" fill="#FFEC2D"/>
<path d="M28.0483 13.2881C28.2773 13.5188 28.4154 13.3992 28.4786 13.1502C28.5629 12.8181 28.6508 10.9137 28.6508 10.9137C28.6508 10.9137 27.9361 12.1724 27.8518 12.5045C27.7886 12.7536 27.8204 13.0533 28.0483 13.2881Z" fill="#FFEC2D"/>
<path d="M32.6525 22.3098C32.5872 22.5669 32.7427 22.7445 32.9604 22.8428C33.2507 22.9738 34.7279 23.2466 34.7279 23.2466C34.7279 23.2466 33.4403 22.2714 33.15 22.1404C32.9323 22.0422 32.7214 22.0544 32.6525 22.3098Z" fill="#FFEC2D"/>
<path d="M25.9834 28.7119C25.7544 28.4812 25.6163 28.6007 25.5531 28.8498C25.4688 29.1819 25.3809 31.0863 25.3809 31.0863C25.3809 31.0863 26.0956 29.8276 26.1799 29.4955C26.2431 29.2464 26.2114 28.9467 25.9834 28.7119Z" fill="#FFEC2D"/>
<path d="M21.3793 19.6901C21.4446 19.4331 21.289 19.2555 21.0713 19.1572C20.781 19.0262 19.3038 18.7534 19.3038 18.7534C19.3038 18.7534 20.5914 19.7285 20.8817 19.8595C21.0994 19.9578 21.3103 19.9455 21.3793 19.6901Z" fill="#FFEC2D"/>
<path d="M30.1213 14.4936C30.3121 14.8242 30.5016 14.7685 30.6444 14.5514C30.8347 14.262 31.4821 12.424 31.4821 12.424C31.4821 12.424 30.3167 13.3431 30.1264 13.6326C29.9837 13.8497 29.933 14.1595 30.1213 14.4936Z" fill="#FFEC2D"/>
<path d="M31.8371 25.119C31.632 25.3573 31.6999 25.6079 31.875 25.8029C32.1085 26.0628 33.5065 26.9778 33.5065 26.9778C33.5065 26.9778 32.6805 25.4165 32.447 25.1565C32.2719 24.9616 32.0451 24.884 31.8371 25.119Z" fill="#FFEC2D"/>
<path d="M23.9099 27.5064C23.7192 27.1758 23.5296 27.2315 23.3869 27.4486C23.1965 27.738 22.5491 29.576 22.5491 29.576C22.5491 29.576 23.7145 28.6569 23.9049 28.3674C24.0476 28.1503 24.0983 27.8405 23.9099 27.5064Z" fill="#FFEC2D"/>
<path d="M22.1947 16.881C22.3997 16.6427 22.3318 16.3921 22.1567 16.1971C21.9232 15.9372 20.5252 15.0222 20.5252 15.0222C20.5252 15.0222 21.3512 16.5835 21.5847 16.8435C21.7598 17.0384 21.9867 17.116 22.1947 16.881Z" fill="#FFEC2D"/>
<path d="M31.6551 16.6167C31.7299 17.0501 31.9355 17.0995 32.1502 16.9627C32.4364 16.7804 33.7015 15.3128 33.7015 15.3128C33.7015 15.3128 32.2405 15.5823 31.9543 15.7647C31.7396 15.9014 31.5839 16.1811 31.6551 16.6167Z" fill="#FFEC2D"/>
<path d="M30.3969 27.2497C30.0034 27.3958 29.9245 27.6762 30.0074 27.949C30.118 28.3127 31.1875 29.8502 31.1875 29.8502C31.1875 29.8502 31.2038 27.9235 31.0933 27.5598C31.0103 27.287 30.7918 27.1082 30.3969 27.2497Z" fill="#FFEC2D"/>
<path d="M22.3762 25.3833C22.3013 24.9499 22.0957 24.9005 21.8811 25.0373C21.5949 25.2196 20.3298 26.6872 20.3298 26.6872C20.3298 26.6872 21.7908 26.4177 22.077 26.2353C22.2917 26.0986 22.4474 25.8189 22.3762 25.3833Z" fill="#FFEC2D"/>
<path d="M23.6343 14.7503C24.0278 14.6042 24.1068 14.3238 24.0239 14.051C23.9133 13.6873 22.8437 12.1498 22.8437 12.1498C22.8437 12.1498 22.8274 14.0765 22.938 14.4402C23.0209 14.713 23.2395 14.8918 23.6343 14.7503Z" fill="#FFEC2D"/>
<path d="M32.5777 18.846C32.5686 19.1571 32.7585 19.3417 32.9923 19.4238C33.304 19.5332 34.8063 19.6287 34.8063 19.6287C34.8063 19.6287 33.3398 18.6814 33.0281 18.5719C32.7944 18.4898 32.5908 18.5362 32.5777 18.846Z" fill="#FFEC2D"/>
<path d="M28.4687 28.619C28.1178 28.4588 27.9635 28.6214 27.936 28.8905C27.8993 29.2495 28.2066 31.1853 28.2066 31.1853C28.2066 31.1853 28.8631 29.7024 28.8997 29.3435C28.9272 29.0743 28.8192 28.7837 28.4687 28.619Z" fill="#FFEC2D"/>
<path d="M21.453 23.154C21.4622 22.8429 21.2722 22.6583 21.0385 22.5762C20.7268 22.4668 19.2245 22.3713 19.2245 22.3713C19.2245 22.3713 20.6909 23.3186 21.0026 23.4281C21.2364 23.5102 21.44 23.4638 21.453 23.154Z" fill="#FFEC2D"/>
<path d="M25.5625 13.3809C25.9134 13.5412 26.0678 13.3786 26.0953 13.1094C26.1319 12.7505 25.8247 10.8147 25.8247 10.8147C25.8247 10.8147 25.1682 12.2976 25.1315 12.6565C25.104 12.9257 25.2121 13.2162 25.5625 13.3809Z" fill="#FFEC2D"/>
<path d="M26.8425 32.75C26.7112 33.065 26.6325 33.43 26.4675 33.715C25.9575 33.1 25.2225 33.115 24.5775 33.08C24.045 33.04 23.4675 32.975 23.055 32.47C22.6237 31.995 22.2675 31.385 21.7875 31C21.3364 30.8705 20.9125 30.6093 20.5462 30.235C19.7887 29.41 19.3537 28.185 18.6112 27.335C18.4725 27.155 18.3037 27.01 18.1462 26.855C17.9962 26.905 18.0637 27.335 17.88 27.115C17.7787 27.015 17.5275 27.01 17.505 27.145C17.73 27.545 17.9587 27.995 17.9925 28.505C17.835 28.525 17.5612 28.46 17.4862 28.535C17.6923 28.9472 17.9513 29.3077 18.2512 29.6C18.1087 29.63 17.8275 29.615 17.7712 29.69C18.052 30.0485 18.3986 30.302 18.7762 30.425C18.8512 30.565 18.66 30.835 18.825 30.955C18.9187 31.005 19.2337 31.095 19.0162 31.24C18.8662 31.37 18.9225 31.685 19.1137 31.675C19.2337 31.76 19.5037 31.775 19.5262 31.925C19.4175 32.065 19.0875 32.235 19.3687 32.375C19.6339 32.5754 19.9306 32.6901 20.235 32.71C20.085 32.88 19.8975 32.975 19.7437 33.135C20.4375 33.68 21.2062 34.035 21.9712 34.385C22.2712 34.515 22.5825 34.64 22.8975 34.72C21.9825 34.65 21.0975 34.29 20.265 33.795C19.8337 33.545 19.4025 33.3 18.96 33.085C19.1512 32.95 19.3762 32.915 19.5787 32.8C19.1587 32.69 18.705 32.65 18.3412 32.35C18.3937 32.21 18.6037 32.205 18.7237 32.135C18.9487 32.065 19.0837 31.985 18.7725 31.955C18.4575 31.84 18.0975 31.89 17.8162 31.64C17.835 31.49 18.1275 31.54 18.2437 31.475C18.3937 31.44 18.5587 31.41 18.6787 31.275C18.1912 31.01 17.5537 31.2 17.1712 30.625C17.085 30.405 17.445 30.58 17.5462 30.545C17.8087 30.545 18.09 30.655 18.3412 30.515C17.6287 30.1 16.8675 29.715 16.3275 28.945C16.2675 28.82 16.0875 28.48 16.2337 28.44C16.6537 28.515 16.9575 29.125 17.4112 29.03C17.4712 28.925 17.1487 28.75 17.0662 28.595C16.3879 27.8683 15.7961 27.0085 15.3112 26.045C15.2812 25.71 15.6675 25.66 15.7687 25.915C16.2712 26.565 16.725 27.315 17.3512 27.755C17.5762 27.9 17.2237 27.585 17.1787 27.47C16.5831 26.5896 16.0682 25.6178 15.645 24.575C15.57 24.385 15.4537 24.04 15.6712 23.94C15.885 23.795 16.1025 23.99 16.2112 24.24C16.635 24.955 16.95 25.805 17.4787 26.4C17.0287 25.235 16.545 24 16.5337 22.66C16.545 22.4 16.5562 22.01 16.8225 22.015C17.0475 21.97 17.01 22.35 17.085 22.53C17.3025 23.52 17.3962 24.59 17.835 25.46C17.7412 24.73 17.595 23.975 17.6925 23.23C17.715 22.98 17.9175 22.91 18.0562 23.06C18.165 23.41 18.1875 23.855 18.285 24.235C18.8694 26.8233 20.1 29.0674 21.7725 30.595C23.1419 31.8445 24.7399 32.5754 26.3962 32.71C26.5462 32.73 26.6962 32.735 26.8425 32.745M31.9575 37.3C31.6875 37.52 31.4775 37.13 31.2525 37.015C31.0875 37.135 31.0725 37.525 30.9225 37.715C30.7425 37.99 30.5175 37.635 30.5362 37.365C30.3187 37.61 30.21 38.165 29.8612 38.085C29.6925 37.905 29.5687 37.525 29.4412 37.96C29.34 38.17 29.0662 38.47 28.92 38.15C28.875 37.87 28.77 37.54 28.6575 37.985C28.575 38.305 28.32 38.535 28.08 38.395C27.945 38.25 28.185 37.71 28.0162 37.745C27.7612 37.975 27.6112 38.53 27.255 38.485C27.1162 38.285 27.3412 37.93 27.1875 37.7C27.0112 38.005 26.8125 38.455 26.5012 38.485C26.3512 38.325 26.5087 37.86 26.4112 37.795C26.0962 38.045 25.7587 38.5 25.3612 38.36C25.515 37.56 26.1675 37.285 26.7112 37.225C27.6525 37.07 28.6425 37.355 29.55 36.9C29.6962 36.78 30.0487 36.615 29.925 36.34C29.8125 36.12 30.2137 36.205 30.2512 35.95C30.2287 35.63 30.4387 35.675 30.6412 35.65C31.5562 35.595 32.46 35.85 33.3712 35.895C33.4387 36.485 32.9475 36.9 32.5462 36.72C32.3587 36.76 32.0775 36.14 32.1337 36.59C32.0962 36.83 32.1187 37.14 31.9575 37.3ZM24.18 36.09C24.39 36.345 24.54 36.04 24.7387 35.925C25.3877 35.5862 25.9975 35.1267 26.55 34.56C26.895 34.18 27.195 33.685 27.66 33.56C28.5675 33.195 29.5312 33.24 30.4387 32.9C31.1325 31.64 32.3062 31.185 33.2925 30.46C33.5137 30.37 33.6 30.125 33.6675 29.86C34.0425 29.065 34.5562 28.365 35.1637 27.885C35.4505 27.6592 35.7883 27.5776 36.1162 27.655C36.071 28.1651 35.8885 28.6359 35.6025 28.98C35.8237 28.975 36.015 28.79 36.2325 28.8C36.3075 29.33 35.88 29.605 35.6512 29.935C35.7787 29.975 36.2662 30.025 36 30.195C35.6625 30.505 35.2762 30.72 34.965 31.085C35.2537 31.155 35.2875 31.235 34.995 31.375C34.8337 31.515 34.53 31.565 34.5 31.845C34.7175 32.025 34.4025 32.195 34.2787 32.255C34.0462 32.33 33.7987 32.465 34.11 32.705C33.9937 32.94 33.7387 32.99 33.5325 32.965C33.5962 33.235 33.6862 33.535 33.4275 33.655C32.8471 34.2668 32.1518 34.6542 31.4175 34.775C32.3362 34.865 33.285 34.64 34.0687 33.975C34.1737 33.81 34.7175 33.63 34.4137 33.495C34.2712 33.415 33.9637 33.325 33.9412 33.18C34.3687 32.83 34.905 32.955 35.3625 32.75C35.3737 32.55 35.0137 32.605 34.8787 32.56C34.56 32.525 34.5787 32.415 34.8862 32.375C35.2762 32.235 35.7187 32.21 36.0487 31.875C35.7825 31.705 35.445 31.85 35.16 31.715C35.6437 31.435 36.2137 31.405 36.6487 30.98C36.8475 30.685 36.3937 30.78 36.2625 30.785C35.9962 30.85 35.8725 30.675 36.1762 30.53C36.6975 30.015 37.3537 29.685 37.7212 28.945C37.8075 28.78 37.9237 28.28 37.6462 28.455C37.2862 28.62 36.9675 29.16 36.5512 28.995C37.3687 28.15 38.1412 27.195 38.7 26.03C38.73 25.69 38.3325 25.655 38.2312 25.92C37.7062 26.59 37.2337 27.385 36.5625 27.81C37.1952 26.9665 37.7446 26.0189 38.1975 24.99C38.2987 24.69 38.565 24.325 38.4225 23.99C38.1862 23.73 37.8937 23.97 37.7737 24.275C37.365 24.985 37.0575 25.81 36.5362 26.39C36.99 25.225 37.4662 23.98 37.4737 22.64C37.4737 22.36 37.4362 21.95 37.1512 22.005C36.9262 22.055 36.9825 22.505 36.8887 22.73C36.6862 23.65 36.5887 24.645 36.1762 25.445C36.27 24.7 36.4312 23.92 36.3075 23.17C36.2475 22.83 35.8387 22.975 35.895 23.31C35.4075 26.605 33.7462 29.485 31.5825 31.15C30.5887 31.9 29.4825 32.38 28.35 32.6C28.05 32.685 27.72 32.635 27.4312 32.775C26.7262 33.49 26.3025 34.695 25.4137 35.07C25.0125 35.335 24.495 35.39 24.21 35.88C24.1869 35.9455 24.1766 36.0178 24.18 36.09ZM26.1187 35.575C25.9837 35.585 25.8525 35.605 25.7212 35.66C25.545 35.695 25.3762 35.775 25.2037 35.81L25.1325 35.83L25.0162 35.845C25.0314 35.9288 25.0314 36.0162 25.0162 36.1C25.0041 36.1378 24.9862 36.1718 24.9637 36.2C24.9412 36.24 24.915 36.27 24.8812 36.29C24.8507 36.31 24.8176 36.3219 24.7837 36.325C24.75 36.325 24.7162 36.325 24.6825 36.305C24.6487 36.29 24.6187 36.265 24.5887 36.23L24.4837 36.255H24.3862L24.2812 36.205C24.2473 36.1873 24.2147 36.1656 24.1837 36.14C24.0562 36.24 23.9137 36.335 23.835 36.51C23.7984 36.5901 23.7777 36.6813 23.775 36.775C23.7675 36.895 23.79 37.015 23.8275 37.125C23.8425 37.155 23.8537 37.01 23.895 36.99C23.9662 36.91 24.0562 36.855 24.1462 36.825C24.2212 36.775 24.21 36.825 24.18 36.905C24.1725 36.95 24.1312 37.105 24.1875 37.025C24.4468 36.8958 24.7207 36.8265 24.9975 36.82C25.395 36.765 25.7925 36.75 26.19 36.745L27.315 36.775C27.495 36.785 27.675 36.835 27.8512 36.795C27.8925 36.78 27.96 36.78 27.9862 36.745C27.9037 36.685 27.81 36.68 27.7237 36.665H27.0075C26.8087 36.64 26.6025 36.635 26.415 36.535C26.3625 36.51 26.3175 36.445 26.2687 36.515C26.1973 36.549 26.123 36.5709 26.0475 36.58C25.9162 36.59 25.785 36.555 25.665 36.49C25.7512 36.33 25.8562 36.19 25.9537 36.04L25.7212 35.975C25.86 35.85 25.9837 35.705 26.1187 35.575Z" fill="#FFEC2D"/>
<path d="M24.7502 36.165C24.7999 36.165 24.8402 36.1113 24.8402 36.045C24.8402 35.9787 24.7999 35.925 24.7502 35.925C24.7005 35.925 24.6602 35.9787 24.6602 36.045C24.6602 36.1113 24.7005 36.165 24.7502 36.165Z" fill="#FFEC2D"/>
<path d="M24.7426 36.075C24.7633 36.075 24.7801 36.0526 24.7801 36.025C24.7801 35.9974 24.7633 35.975 24.7426 35.975C24.7219 35.975 24.7051 35.9974 24.7051 36.025C24.7051 36.0526 24.7219 36.075 24.7426 36.075Z" fill="#FFEC2D" stroke="#FFEC2D" stroke-width="0.192"/>
<path d="M4.5 3.65C4.5 3.65 4.14 3.24 4.01625 3.445C3.82125 3.77 4.62375 5.395 4.62375 5.965C4.62375 6.905 4.15125 7.16 3.57375 7.29C3.18375 7.38 2.55 7.255 2.55 7.255C2.67 7.04 2.74875 6.975 2.9475 6.96C2.7225 6.81 2.4975 6.47 2.4975 5.945C2.4975 5.14 2.745 4.805 2.745 3.895C2.745 3.4 2.4375 2.75 2.4375 2.75C2.985 2.825 3.255 3.5 3.10125 4.04C3.14345 4.0512 3.18707 4.04839 3.22827 4.03182C3.26947 4.01526 3.30698 3.98544 3.3375 3.945C3.375 4.095 3.315 4.27 3.22875 4.42C3.29625 4.47 3.34875 4.44 3.45375 4.41C3.44625 4.56 3.37875 4.73 3.20625 4.885C3.70125 4.715 4.00125 5.17 4.00125 5.65C4.00125 6.015 3.81375 6.275 3.62625 6.275C3.56625 6.275 3.47625 6.24 3.4275 6.19C3.39 6.29 3.4125 6.425 3.44625 6.525C3.31125 6.475 3.22125 6.365 3.285 6.14C3.18 6.13 3.0975 6.08 3.04125 5.99C3.0975 5.89 3.18375 5.84 3.285 5.84C3.21 5.63 3.29625 5.515 3.42 5.42C3.42 5.42 3.34125 5.84 3.54 5.84C3.63 5.84 3.7125 5.805 3.7125 5.625C3.7125 5.47 3.61125 5.255 3.375 5.27C3.1425 5.285 2.95125 5.485 2.95125 5.985C2.95125 6.445 3.2325 6.675 3.6 6.685C3.93 6.705 4.18125 6.465 4.18125 6.01C4.18125 5.4 3.525 4.02 3.525 3.48C3.525 3.075 3.795 2.845 4.065 2.845C4.41 2.845 4.7025 3.305 4.7025 3.305L4.5 3.645V3.65Z" fill="#FFEC2D"/>
<path d="M4.575 14.605C4.575 15.62 3.8925 16.14 3.35625 16.14C2.63625 16.14 2.25 15.565 2.25 14.81C2.25 14.385 2.31 14.115 2.45625 13.71L4.11375 9.12501C4.1738 8.93215 4.19947 8.72335 4.18875 8.51501C4.18875 8.10501 3.88875 7.77001 3.5775 7.76501C3.2925 7.75001 2.9775 8.11501 2.9775 8.53001C2.9775 9.03501 3.17625 9.26001 3.37875 9.26001C3.62625 9.26001 3.72375 9.12501 3.72375 8.89001C3.72375 8.73001 3.6675 8.66001 3.58125 8.66001C3.3675 8.66001 3.43125 9.04001 3.43125 9.04001C3.40303 9.03306 3.3763 9.01787 3.35299 8.99555C3.32967 8.97323 3.31034 8.94432 3.29637 8.91089C3.2824 8.87746 3.27413 8.84033 3.27217 8.80215C3.2702 8.76397 3.27459 8.72568 3.285 8.69001C3.20473 8.66602 3.1324 8.60815 3.07875 8.52501C3.135 8.45001 3.2025 8.39501 3.285 8.37501C3.23625 8.15501 3.30375 8.05001 3.44625 8.00001C3.42061 8.07517 3.41403 8.15942 3.4275 8.24001C3.6525 8.15001 4.00125 8.29001 4.00125 8.81001C4.00125 9.33001 3.73125 9.76501 3.225 9.66001C3.345 9.73501 3.405 9.89001 3.42 10.065C3.32625 10.015 3.225 10.015 3.225 10.015C3.285 10.15 3.3675 10.265 3.36375 10.545C3.27 10.485 3.18 10.38 3.06375 10.445C3.25125 10.945 3.01875 11.625 2.42625 11.785C2.64375 11.445 2.74875 11.085 2.74875 10.72C2.74875 9.54501 2.505 9.35001 2.505 8.53001C2.50886 8.33984 2.54658 8.15361 2.61504 7.9867C2.6835 7.81978 2.78074 7.67696 2.89875 7.57001V7.58501C2.82618 7.56514 2.75759 7.52502 2.69748 7.46728C2.63738 7.40955 2.58711 7.3355 2.55 7.25001C2.96774 7.0965 3.40935 7.10169 3.825 7.26501C3.96403 7.29124 4.09686 7.35877 4.21369 7.46262C4.33053 7.56647 4.42837 7.70399 4.5 7.86501C4.57487 8.0928 4.61352 8.33881 4.61352 8.58751C4.61352 8.83622 4.57487 9.08222 4.5 9.31001C4.26375 9.96001 3.16125 13.09 2.81625 14.07C2.74125 14.28 2.7 14.5 2.7 14.74C2.7 15.34 3.1125 15.55 3.345 15.55C3.62625 15.55 3.915 15.265 3.915 14.91C3.915 14.685 3.82125 14.545 3.69 14.545C3.37125 14.545 3.39 14.905 3.45375 15.135C3.255 15.015 3.1425 14.805 3.1725 14.585C3.04945 14.5575 2.93777 14.4724 2.8575 14.345C2.9325 14.215 3.03 14.115 3.1725 14.11C3.10875 13.765 3.285 13.62 3.45375 13.54C3.40125 13.79 3.36375 14.085 3.69 14.085C3.92625 14.085 4.11 14.135 4.21875 14.345L4.245 12.995C4.26 12.59 3.84 12.595 3.57 12.72C3.67125 12.255 3.8775 12 4.3575 12.065C4.28396 12.0273 4.2212 11.9597 4.17812 11.8717C4.13504 11.7838 4.11383 11.68 4.1175 11.575C4.1175 11.195 4.35 10.775 4.5 10.65L4.575 14.6V14.605Z" fill="#FFEC2D"/>
<path d="M4.575 17.645C4.575 16.63 3.8925 16.11 3.35625 16.11C2.63625 16.11 2.25 16.685 2.25 17.44C2.25 17.865 2.31 18.135 2.45625 18.54L4.11375 23.125C4.1738 23.3179 4.19947 23.5267 4.18875 23.735C4.18875 24.145 3.88875 24.48 3.5775 24.485C3.2925 24.5 2.9775 24.135 2.9775 23.72C2.9775 23.215 3.17625 22.99 3.37875 22.99C3.62625 22.99 3.72375 23.125 3.72375 23.36C3.72375 23.52 3.6675 23.59 3.58125 23.59C3.3675 23.59 3.43125 23.21 3.43125 23.21C3.40303 23.217 3.3763 23.2322 3.35299 23.2545C3.32967 23.2768 3.31034 23.3057 3.29637 23.3391C3.2824 23.3726 3.27413 23.4097 3.27217 23.4479C3.2702 23.4861 3.27459 23.5244 3.285 23.56C3.20473 23.584 3.1324 23.6419 3.07875 23.725C3.135 23.8 3.2025 23.855 3.285 23.875C3.23625 24.095 3.30375 24.2 3.44625 24.25C3.42061 24.1749 3.41403 24.0906 3.4275 24.01C3.6525 24.1 4.00125 23.96 4.00125 23.44C4.00125 22.92 3.73125 22.485 3.225 22.59C3.345 22.515 3.405 22.36 3.42 22.185C3.32625 22.235 3.225 22.235 3.225 22.235C3.285 22.1 3.3675 21.985 3.36375 21.705C3.27 21.765 3.18 21.87 3.06375 21.805C3.25125 21.305 3.01875 20.625 2.42625 20.465C2.64375 20.805 2.74875 21.165 2.74875 21.53C2.74875 22.705 2.505 22.9 2.505 23.72C2.50886 23.9102 2.54658 24.0964 2.61504 24.2633C2.6835 24.4303 2.78074 24.5731 2.89875 24.68V24.665C2.82618 24.6849 2.75759 24.725 2.69748 24.7827C2.63738 24.8405 2.58711 24.9145 2.55 25C2.96774 25.1535 3.40935 25.1483 3.825 24.985C3.96403 24.9588 4.09686 24.8913 4.21369 24.7874C4.33053 24.6836 4.42837 24.546 4.5 24.385C4.57487 24.1572 4.61352 23.9112 4.61352 23.6625C4.61352 23.4138 4.57487 23.1678 4.5 22.94C4.26375 22.29 3.16125 19.16 2.81625 18.18C2.74125 17.97 2.7 17.75 2.7 17.51C2.7 16.91 3.1125 16.7 3.345 16.7C3.62625 16.7 3.915 16.985 3.915 17.34C3.915 17.565 3.82125 17.705 3.69 17.705C3.37125 17.705 3.39 17.345 3.45375 17.115C3.255 17.235 3.1425 17.445 3.1725 17.665C3.04945 17.6926 2.93777 17.7776 2.8575 17.905C2.9325 18.035 3.03 18.135 3.1725 18.14C3.10875 18.485 3.285 18.63 3.45375 18.71C3.40125 18.46 3.36375 18.165 3.69 18.165C3.92625 18.165 4.11 18.115 4.21875 17.905L4.245 19.255C4.26 19.66 3.84 19.655 3.57 19.53C3.67125 19.995 3.8775 20.25 4.3575 20.185C4.28396 20.2227 4.2212 20.2903 4.17812 20.3783C4.13504 20.4663 4.11383 20.5701 4.1175 20.675C4.1175 21.055 4.35 21.475 4.5 21.6L4.575 17.65V17.645Z" fill="#FFEC2D"/>
<path d="M4.5 3.65C4.5 3.65 4.86 3.24 4.98375 3.445C5.17875 3.77 4.37625 5.395 4.37625 5.965C4.37625 6.905 4.84875 7.16 5.42625 7.29C5.81625 7.38 6.45 7.255 6.45 7.255C6.33 7.04 6.25125 6.975 6.0525 6.96C6.2775 6.81 6.5025 6.47 6.5025 5.945C6.5025 5.14 6.255 4.805 6.255 3.895C6.255 3.4 6.5625 2.75 6.5625 2.75C6.015 2.825 5.745 3.5 5.89875 4.04C5.85655 4.0512 5.81293 4.04839 5.77173 4.03182C5.73053 4.01526 5.69302 3.98544 5.6625 3.945C5.625 4.095 5.685 4.27 5.77125 4.42C5.70375 4.47 5.65125 4.44 5.54625 4.41C5.55375 4.56 5.62125 4.73 5.79375 4.885C5.29875 4.715 4.99875 5.17 4.99875 5.65C4.99875 6.015 5.18625 6.275 5.37375 6.275C5.43375 6.275 5.52375 6.24 5.5725 6.19C5.61 6.29 5.5875 6.425 5.55375 6.525C5.68875 6.475 5.77875 6.365 5.715 6.14C5.82 6.13 5.9025 6.08 5.95875 5.99C5.9025 5.89 5.81625 5.84 5.715 5.84C5.79 5.63 5.70375 5.515 5.58 5.42C5.58 5.42 5.65875 5.84 5.46 5.84C5.37 5.84 5.2875 5.805 5.2875 5.625C5.2875 5.47 5.38875 5.255 5.625 5.27C5.8575 5.285 6.04875 5.485 6.04875 5.985C6.04875 6.445 5.7675 6.675 5.4 6.685C5.07 6.705 4.81875 6.465 4.81875 6.01C4.81875 5.4 5.475 4.02 5.475 3.48C5.475 3.075 5.205 2.845 4.935 2.845C4.59 2.845 4.2975 3.305 4.2975 3.305L4.5 3.645V3.65Z" fill="#FFEC2D"/>
<path d="M4.425 14.605C4.425 15.62 5.1075 16.14 5.64375 16.14C6.36375 16.14 6.75 15.565 6.75 14.81C6.75 14.385 6.69 14.115 6.54375 13.71L4.88625 9.12501C4.8262 8.93215 4.80053 8.72335 4.81125 8.51501C4.81125 8.10501 5.11125 7.77001 5.4225 7.76501C5.7075 7.75001 6.0225 8.11501 6.0225 8.53001C6.0225 9.03501 5.82375 9.26001 5.62125 9.26001C5.37375 9.26001 5.27625 9.12501 5.27625 8.89001C5.27625 8.73001 5.3325 8.66001 5.41875 8.66001C5.6325 8.66001 5.56875 9.04001 5.56875 9.04001C5.59697 9.03306 5.6237 9.01787 5.64701 8.99555C5.67033 8.97323 5.68966 8.94432 5.70363 8.91089C5.7176 8.87746 5.72587 8.84033 5.72783 8.80215C5.7298 8.76397 5.72541 8.72568 5.715 8.69001C5.79527 8.66602 5.8676 8.60815 5.92125 8.52501C5.865 8.45001 5.7975 8.39501 5.715 8.37501C5.76375 8.15501 5.69625 8.05001 5.55375 8.00001C5.57939 8.07517 5.58597 8.15942 5.5725 8.24001C5.3475 8.15001 4.99875 8.29001 4.99875 8.81001C4.99875 9.33001 5.26875 9.76501 5.775 9.66001C5.655 9.73501 5.595 9.89001 5.58 10.065C5.67375 10.015 5.775 10.015 5.775 10.015C5.715 10.15 5.6325 10.265 5.63625 10.545C5.73 10.485 5.82 10.38 5.93625 10.445C5.74875 10.945 5.98125 11.625 6.57375 11.785C6.35625 11.445 6.25125 11.085 6.25125 10.72C6.25125 9.54501 6.495 9.35001 6.495 8.53001C6.49114 8.33984 6.45342 8.15361 6.38496 7.9867C6.3165 7.81978 6.21926 7.67696 6.10125 7.57001V7.58501C6.17382 7.56514 6.24241 7.52502 6.30252 7.46728C6.36262 7.40955 6.41289 7.3355 6.45 7.25001C6.03226 7.0965 5.59065 7.10169 5.175 7.26501C5.03597 7.29124 4.90314 7.35877 4.78631 7.46262C4.66947 7.56647 4.57163 7.70399 4.5 7.86501C4.42513 8.0928 4.38648 8.33881 4.38648 8.58751C4.38648 8.83622 4.42513 9.08222 4.5 9.31001C4.73625 9.96001 5.83875 13.09 6.18375 14.07C6.25875 14.28 6.3 14.5 6.3 14.74C6.3 15.34 5.8875 15.55 5.655 15.55C5.37375 15.55 5.085 15.265 5.085 14.91C5.085 14.685 5.17875 14.545 5.31 14.545C5.62875 14.545 5.61 14.905 5.54625 15.135C5.745 15.015 5.8575 14.805 5.8275 14.585C5.95055 14.5575 6.06223 14.4724 6.1425 14.345C6.0675 14.215 5.97 14.115 5.8275 14.11C5.89125 13.765 5.715 13.62 5.54625 13.54C5.59875 13.79 5.63625 14.085 5.31 14.085C5.07375 14.085 4.89 14.135 4.78125 14.345L4.755 12.995C4.74 12.59 5.16 12.595 5.43 12.72C5.32875 12.255 5.1225 12 4.6425 12.065C4.71604 12.0273 4.7788 11.9597 4.82188 11.8717C4.86496 11.7838 4.88617 11.68 4.8825 11.575C4.8825 11.195 4.65 10.775 4.5 10.65L4.425 14.6V14.605Z" fill="#FFEC2D"/>
<path d="M4.425 17.645C4.425 16.63 5.1075 16.11 5.64375 16.11C6.36375 16.11 6.75 16.685 6.75 17.44C6.75 17.865 6.69 18.135 6.54375 18.54L4.88625 23.125C4.8262 23.3179 4.80053 23.5267 4.81125 23.735C4.81125 24.145 5.11125 24.48 5.4225 24.485C5.7075 24.5 6.0225 24.135 6.0225 23.72C6.0225 23.215 5.82375 22.99 5.62125 22.99C5.37375 22.99 5.27625 23.125 5.27625 23.36C5.27625 23.52 5.3325 23.59 5.41875 23.59C5.6325 23.59 5.56875 23.21 5.56875 23.21C5.59697 23.217 5.6237 23.2322 5.64701 23.2545C5.67033 23.2768 5.68966 23.3057 5.70363 23.3391C5.7176 23.3726 5.72587 23.4097 5.72783 23.4479C5.7298 23.4861 5.72541 23.5244 5.715 23.56C5.79527 23.584 5.8676 23.6419 5.92125 23.725C5.865 23.8 5.7975 23.855 5.715 23.875C5.76375 24.095 5.69625 24.2 5.55375 24.25C5.57939 24.1749 5.58597 24.0906 5.5725 24.01C5.3475 24.1 4.99875 23.96 4.99875 23.44C4.99875 22.92 5.26875 22.485 5.775 22.59C5.655 22.515 5.595 22.36 5.58 22.185C5.67375 22.235 5.775 22.235 5.775 22.235C5.715 22.1 5.6325 21.985 5.63625 21.705C5.73 21.765 5.82 21.87 5.93625 21.805C5.74875 21.305 5.98125 20.625 6.57375 20.465C6.35625 20.805 6.25125 21.165 6.25125 21.53C6.25125 22.705 6.495 22.9 6.495 23.72C6.49114 23.9102 6.45342 24.0964 6.38496 24.2633C6.3165 24.4303 6.21926 24.5731 6.10125 24.68V24.665C6.17382 24.6849 6.24241 24.725 6.30252 24.7827C6.36262 24.8405 6.41289 24.9145 6.45 25C6.03226 25.1535 5.59065 25.1483 5.175 24.985C5.03597 24.9588 4.90314 24.8913 4.78631 24.7874C4.66947 24.6836 4.57163 24.546 4.5 24.385C4.42513 24.1572 4.38648 23.9112 4.38648 23.6625C4.38648 23.4138 4.42513 23.1678 4.5 22.94C4.73625 22.29 5.83875 19.16 6.18375 18.18C6.25875 17.97 6.3 17.75 6.3 17.51C6.3 16.91 5.8875 16.7 5.655 16.7C5.37375 16.7 5.085 16.985 5.085 17.34C5.085 17.565 5.17875 17.705 5.31 17.705C5.62875 17.705 5.61 17.345 5.54625 17.115C5.745 17.235 5.8575 17.445 5.8275 17.665C5.95055 17.6926 6.06223 17.7776 6.1425 17.905C6.0675 18.035 5.97 18.135 5.8275 18.14C5.89125 18.485 5.715 18.63 5.54625 18.71C5.59875 18.46 5.63625 18.165 5.31 18.165C5.07375 18.165 4.89 18.115 4.78125 17.905L4.755 19.255C4.74 19.66 5.16 19.655 5.43 19.53C5.32875 19.995 5.1225 20.25 4.6425 20.185C4.71604 20.2227 4.7788 20.2903 4.82188 20.3783C4.86496 20.4663 4.88617 20.5701 4.8825 20.675C4.8825 21.055 4.65 21.475 4.5 21.6L4.425 17.65V17.645Z" fill="#FFEC2D"/>
<path d="M4.575 35.395C4.575 34.38 3.8925 33.86 3.35625 33.86C2.63625 33.86 2.25 34.435 2.25 35.19C2.25 35.615 2.31 35.885 2.45625 36.29L4.11375 40.875C4.1738 41.0679 4.19947 41.2767 4.18875 41.485C4.18875 41.895 3.88875 42.23 3.5775 42.235C3.2925 42.25 2.9775 41.885 2.9775 41.47C2.9775 40.965 3.17625 40.74 3.37875 40.74C3.62625 40.74 3.72375 40.875 3.72375 41.11C3.72375 41.27 3.6675 41.34 3.58125 41.34C3.3675 41.34 3.43125 40.96 3.43125 40.96C3.40303 40.967 3.3763 40.9822 3.35299 41.0045C3.32967 41.0268 3.31034 41.0557 3.29637 41.0891C3.2824 41.1226 3.27413 41.1597 3.27217 41.1979C3.2702 41.2361 3.27459 41.2744 3.285 41.31C3.20473 41.334 3.1324 41.3919 3.07875 41.475C3.135 41.55 3.2025 41.605 3.285 41.625C3.23625 41.845 3.30375 41.95 3.44625 42C3.42061 41.9249 3.41403 41.8406 3.4275 41.76C3.6525 41.85 4.00125 41.71 4.00125 41.19C4.00125 40.67 3.73125 40.235 3.225 40.34C3.345 40.265 3.405 40.11 3.42 39.935C3.32625 39.985 3.225 39.985 3.225 39.985C3.285 39.85 3.3675 39.735 3.36375 39.455C3.27 39.515 3.18 39.62 3.06375 39.555C3.25125 39.055 3.01875 38.375 2.42625 38.215C2.64375 38.555 2.74875 38.915 2.74875 39.28C2.74875 40.455 2.505 40.65 2.505 41.47C2.50886 41.6602 2.54658 41.8464 2.61504 42.0133C2.6835 42.1803 2.78074 42.3231 2.89875 42.43V42.415C2.82618 42.4349 2.75759 42.475 2.69748 42.5327C2.63738 42.5905 2.58711 42.6645 2.55 42.75C2.96774 42.9035 3.40935 42.8983 3.825 42.735C3.96403 42.7088 4.09686 42.6413 4.21369 42.5374C4.33053 42.4336 4.42837 42.296 4.5 42.135C4.57487 41.9072 4.61352 41.6612 4.61352 41.4125C4.61352 41.1638 4.57487 40.9178 4.5 40.69C4.26375 40.04 3.16125 36.91 2.81625 35.93C2.74125 35.72 2.7 35.5 2.7 35.26C2.7 34.66 3.1125 34.45 3.345 34.45C3.62625 34.45 3.915 34.735 3.915 35.09C3.915 35.315 3.82125 35.455 3.69 35.455C3.37125 35.455 3.39 35.095 3.45375 34.865C3.255 34.985 3.1425 35.195 3.1725 35.415C3.04945 35.4426 2.93777 35.5276 2.8575 35.655C2.9325 35.785 3.03 35.885 3.1725 35.89C3.10875 36.235 3.285 36.38 3.45375 36.46C3.40125 36.21 3.36375 35.915 3.69 35.915C3.92625 35.915 4.11 35.865 4.21875 35.655L4.245 37.005C4.26 37.41 3.84 37.405 3.57 37.28C3.67125 37.745 3.8775 38 4.3575 37.935C4.28396 37.9727 4.2212 38.0403 4.17812 38.1283C4.13504 38.2163 4.11383 38.3201 4.1175 38.425C4.1175 38.805 4.35 39.225 4.5 39.35L4.575 35.4V35.395Z" fill="#FFEC2D"/>
<path d="M4.575 32.355C4.575 33.37 3.8925 33.89 3.35625 33.89C2.63625 33.89 2.25 33.315 2.25 32.56C2.25 32.135 2.31 31.865 2.45625 31.46L4.11375 26.875C4.1738 26.6821 4.19947 26.4733 4.18875 26.265C4.18875 25.855 3.88875 25.52 3.5775 25.515C3.2925 25.5 2.9775 25.865 2.9775 26.28C2.9775 26.785 3.17625 27.01 3.37875 27.01C3.62625 27.01 3.72375 26.875 3.72375 26.64C3.72375 26.48 3.6675 26.41 3.58125 26.41C3.3675 26.41 3.43125 26.79 3.43125 26.79C3.40303 26.783 3.3763 26.7678 3.35299 26.7455C3.32967 26.7232 3.31034 26.6943 3.29637 26.6609C3.2824 26.6274 3.27413 26.5903 3.27217 26.5521C3.2702 26.5139 3.27459 26.4756 3.285 26.44C3.20473 26.416 3.1324 26.3581 3.07875 26.275C3.135 26.2 3.2025 26.145 3.285 26.125C3.23625 25.905 3.30375 25.8 3.44625 25.75C3.42061 25.8251 3.41403 25.9094 3.4275 25.99C3.6525 25.9 4.00125 26.04 4.00125 26.56C4.00125 27.08 3.73125 27.515 3.225 27.41C3.345 27.485 3.405 27.64 3.42 27.815C3.32625 27.765 3.225 27.765 3.225 27.765C3.285 27.9 3.3675 28.015 3.36375 28.295C3.27 28.235 3.18 28.13 3.06375 28.195C3.25125 28.695 3.01875 29.375 2.42625 29.535C2.64375 29.195 2.74875 28.835 2.74875 28.47C2.74875 27.295 2.505 27.1 2.505 26.28C2.50886 26.0898 2.54658 25.9036 2.61504 25.7367C2.6835 25.5697 2.78074 25.4269 2.89875 25.32V25.335C2.82618 25.3151 2.75759 25.275 2.69748 25.2173C2.63738 25.1595 2.58711 25.0855 2.55 25C2.96774 24.8465 3.40935 24.8517 3.825 25.015C3.96403 25.0412 4.09686 25.1087 4.21369 25.2126C4.33053 25.3164 4.42837 25.454 4.5 25.615C4.57487 25.8428 4.61352 26.0888 4.61352 26.3375C4.61352 26.5862 4.57487 26.8322 4.5 27.06C4.26375 27.71 3.16125 30.84 2.81625 31.82C2.74125 32.03 2.7 32.25 2.7 32.49C2.7 33.09 3.1125 33.3 3.345 33.3C3.62625 33.3 3.915 33.015 3.915 32.66C3.915 32.435 3.82125 32.295 3.69 32.295C3.37125 32.295 3.39 32.655 3.45375 32.885C3.255 32.765 3.1425 32.555 3.1725 32.335C3.04945 32.3074 2.93777 32.2224 2.8575 32.095C2.9325 31.965 3.03 31.865 3.1725 31.86C3.10875 31.515 3.285 31.37 3.45375 31.29C3.40125 31.54 3.36375 31.835 3.69 31.835C3.92625 31.835 4.11 31.885 4.21875 32.095L4.245 30.745C4.26 30.34 3.84 30.345 3.57 30.47C3.67125 30.005 3.8775 29.75 4.3575 29.815C4.28396 29.7773 4.2212 29.7097 4.17812 29.6217C4.13504 29.5337 4.11383 29.4299 4.1175 29.325C4.1175 28.945 4.35 28.525 4.5 28.4L4.575 32.35V32.355Z" fill="#FFEC2D"/>
<path d="M4.425 35.395C4.425 34.38 5.1075 33.86 5.64375 33.86C6.36375 33.86 6.75 34.435 6.75 35.19C6.75 35.615 6.69 35.885 6.54375 36.29L4.88625 40.875C4.8262 41.0678 4.80053 41.2767 4.81125 41.485C4.81125 41.895 5.11125 42.23 5.4225 42.235C5.7075 42.25 6.0225 41.885 6.0225 41.47C6.0225 40.965 5.82375 40.74 5.62125 40.74C5.37375 40.74 5.27625 40.875 5.27625 41.11C5.27625 41.27 5.3325 41.34 5.41875 41.34C5.6325 41.34 5.56875 40.96 5.56875 40.96C5.59697 40.9669 5.6237 40.9821 5.64701 41.0044C5.67033 41.0268 5.68966 41.0557 5.70363 41.0891C5.7176 41.1225 5.72587 41.1597 5.72783 41.1979C5.7298 41.236 5.72541 41.2743 5.715 41.31C5.79527 41.334 5.8676 41.3918 5.92125 41.475C5.865 41.55 5.7975 41.605 5.715 41.625C5.76375 41.845 5.69625 41.95 5.55375 42C5.57939 41.9248 5.58597 41.8406 5.5725 41.76C5.3475 41.85 4.99875 41.71 4.99875 41.19C4.99875 40.67 5.26875 40.235 5.775 40.34C5.655 40.265 5.595 40.11 5.58 39.935C5.67375 39.985 5.775 39.985 5.775 39.985C5.715 39.85 5.6325 39.735 5.63625 39.455C5.73 39.515 5.82 39.62 5.93625 39.555C5.74875 39.055 5.98125 38.375 6.57375 38.215C6.35625 38.555 6.25125 38.915 6.25125 39.28C6.25125 40.455 6.495 40.65 6.495 41.47C6.49114 41.6602 6.45342 41.8464 6.38496 42.0133C6.3165 42.1802 6.21926 42.323 6.10125 42.43V42.415C6.17382 42.4349 6.24241 42.475 6.30252 42.5327C6.36262 42.5905 6.41289 42.6645 6.45 42.75C6.03226 42.9035 5.59065 42.8983 5.175 42.735C5.03597 42.7088 4.90314 42.6412 4.78631 42.5374C4.66947 42.4335 4.57163 42.296 4.5 42.135C4.42513 41.9072 4.38648 41.6612 4.38648 41.4125C4.38648 41.1638 4.42513 40.9178 4.5 40.69C4.73625 40.04 5.83875 36.91 6.18375 35.93C6.25875 35.72 6.3 35.5 6.3 35.26C6.3 34.66 5.8875 34.45 5.655 34.45C5.37375 34.45 5.085 34.735 5.085 35.09C5.085 35.315 5.17875 35.455 5.31 35.455C5.62875 35.455 5.61 35.095 5.54625 34.865C5.745 34.985 5.8575 35.195 5.8275 35.415C5.95055 35.4425 6.06223 35.5276 6.1425 35.655C6.0675 35.785 5.97 35.885 5.8275 35.89C5.89125 36.235 5.715 36.38 5.54625 36.46C5.59875 36.21 5.63625 35.915 5.31 35.915C5.07375 35.915 4.89 35.865 4.78125 35.655L4.755 37.005C4.74 37.41 5.16 37.405 5.43 37.28C5.32875 37.745 5.1225 38 4.6425 37.935C4.71604 37.9727 4.7788 38.0403 4.82188 38.1283C4.86496 38.2162 4.88617 38.32 4.8825 38.425C4.8825 38.805 4.65 39.225 4.5 39.35L4.425 35.4V35.395Z" fill="#FFEC2D"/>
<path d="M4.425 32.355C4.425 33.37 5.1075 33.89 5.64375 33.89C6.36375 33.89 6.75 33.315 6.75 32.56C6.75 32.135 6.69 31.865 6.54375 31.46L4.88625 26.875C4.8262 26.6821 4.80053 26.4733 4.81125 26.265C4.81125 25.855 5.11125 25.52 5.4225 25.515C5.7075 25.5 6.0225 25.865 6.0225 26.28C6.0225 26.785 5.82375 27.01 5.62125 27.01C5.37375 27.01 5.27625 26.875 5.27625 26.64C5.27625 26.48 5.3325 26.41 5.41875 26.41C5.6325 26.41 5.56875 26.79 5.56875 26.79C5.59697 26.783 5.6237 26.7678 5.64701 26.7455C5.67033 26.7232 5.68966 26.6943 5.70363 26.6609C5.7176 26.6274 5.72587 26.5903 5.72783 26.5521C5.7298 26.5139 5.72541 26.4756 5.715 26.44C5.79527 26.416 5.8676 26.3581 5.92125 26.275C5.865 26.2 5.7975 26.145 5.715 26.125C5.76375 25.905 5.69625 25.8 5.55375 25.75C5.57939 25.8251 5.58597 25.9094 5.5725 25.99C5.3475 25.9 4.99875 26.04 4.99875 26.56C4.99875 27.08 5.26875 27.515 5.775 27.41C5.655 27.485 5.595 27.64 5.58 27.815C5.67375 27.765 5.775 27.765 5.775 27.765C5.715 27.9 5.6325 28.015 5.63625 28.295C5.73 28.235 5.82 28.13 5.93625 28.195C5.74875 28.695 5.98125 29.375 6.57375 29.535C6.35625 29.195 6.25125 28.835 6.25125 28.47C6.25125 27.295 6.495 27.1 6.495 26.28C6.49114 26.0898 6.45342 25.9036 6.38496 25.7367C6.3165 25.5697 6.21926 25.4269 6.10125 25.32V25.335C6.17382 25.3151 6.24241 25.275 6.30252 25.2173C6.36262 25.1595 6.41289 25.0855 6.45 25C6.03226 24.8465 5.59065 24.8517 5.175 25.015C5.03597 25.0412 4.90314 25.1087 4.78631 25.2126C4.66947 25.3164 4.57163 25.454 4.5 25.615C4.42513 25.8428 4.38648 26.0888 4.38648 26.3375C4.38648 26.5862 4.42513 26.8322 4.5 27.06C4.73625 27.71 5.83875 30.84 6.18375 31.82C6.25875 32.03 6.3 32.25 6.3 32.49C6.3 33.09 5.8875 33.3 5.655 33.3C5.37375 33.3 5.085 33.015 5.085 32.66C5.085 32.435 5.17875 32.295 5.31 32.295C5.62875 32.295 5.61 32.655 5.54625 32.885C5.745 32.765 5.8575 32.555 5.8275 32.335C5.95055 32.3074 6.06223 32.2224 6.1425 32.095C6.0675 31.965 5.97 31.865 5.8275 31.86C5.89125 31.515 5.715 31.37 5.54625 31.29C5.59875 31.54 5.63625 31.835 5.31 31.835C5.07375 31.835 4.89 31.885 4.78125 32.095L4.755 30.745C4.74 30.34 5.16 30.345 5.43 30.47C5.32875 30.005 5.1225 29.75 4.6425 29.815C4.71604 29.7773 4.7788 29.7097 4.82188 29.6217C4.86496 29.5337 4.88617 29.4299 4.8825 29.325C4.8825 28.945 4.65 28.525 4.5 28.4L4.425 32.35V32.355Z" fill="#FFEC2D"/>
</g>
<defs>
<clipPath id="clip0_1223_527">
<rect width="50" height="50" rx="25" fill="white"/>
</clipPath>
</defs>
</svg>
