<svg width="40" height="21" viewBox="0 0 40 21" fill="none" xmlns="http://www.w3.org/2000/svg">
<path d="M9.50625 9.20062C9.2875 8.40656 9.01875 7.02187 9.01875 7.02187H8.9875C8.9875 7.02187 8.71875 8.40656 8.5 9.20062L7.80625 11.6616H10.1875L9.50625 9.20062ZM38.5 0H21V21H38.5C39.3312 21 40 20.2978 40 19.425V1.575C40 0.702187 39.3312 0 38.5 0ZM37 7.875C37 8.30812 36.6625 8.6625 36.25 8.6625H35.5375C35.1062 10.2112 34.1813 11.7731 32.8688 13.2497C33.3938 13.6697 33.9375 14.07 34.5 14.4309C34.8438 14.6541 34.9562 15.12 34.7562 15.4941L34.2625 16.4062C34.05 16.7934 33.5812 16.9181 33.2188 16.6884C32.4313 16.1766 31.6875 15.6319 31.0063 15.0544C30.325 15.6253 29.5875 16.1766 28.7938 16.6884C28.4313 16.9181 27.9625 16.7934 27.75 16.4062L27.2563 15.4941C27.0562 15.1266 27.1687 14.6541 27.5187 14.4309C28.1 14.0569 28.6437 13.6631 29.15 13.2497C28.6562 12.6984 28.2188 12.1341 27.8375 11.5631C27.5875 11.1891 27.7 10.6706 28.0688 10.4409L28.475 10.185L28.9312 9.90281C29.2687 9.69281 29.7062 9.79125 29.9312 10.1259C30.2437 10.5853 30.6062 11.0447 31.0187 11.4975C31.8625 10.5656 32.5062 9.60094 32.8937 8.6625H25.75C25.3375 8.6625 25 8.30812 25 7.875V6.825C25 6.39187 25.3375 6.0375 25.75 6.0375H29.75V4.9875C29.75 4.55437 30.0875 4.2 30.5 4.2H31.5C31.9125 4.2 32.25 4.55437 32.25 4.9875V6.0375H36.25C36.6625 6.0375 37 6.39187 37 6.825V7.875ZM0 1.575V19.425C0 20.2978 0.66875 21 1.5 21H19V0H1.5C0.66875 0 0 0.702187 0 1.575ZM3.68125 15.7566L7.275 4.65937C7.38125 4.33781 7.6625 4.12781 7.9875 4.12781H10.0188C10.3375 4.12781 10.625 4.34437 10.7312 4.65937L14.325 15.7566C14.4875 16.2684 14.1313 16.8 13.6125 16.8H12.1812C12.0195 16.7999 11.8621 16.7449 11.7326 16.6432C11.6031 16.5414 11.5083 16.3985 11.4625 16.2356L10.875 14.1422H7.1125L6.54375 16.2291C6.45 16.5637 6.15625 16.8 5.825 16.8H4.39375C3.88125 16.8 3.51875 16.2684 3.68125 15.7566Z" fill="black"/>
</svg>
