<svg width="28" height="33" viewBox="0 0 28 33" fill="none" xmlns="http://www.w3.org/2000/svg">
<g id="file-lines-regular 1" clip-path="url(#clip0_113_929)">
<path id="Vector" d="M4.66667 29.9062C4.025 29.9062 3.5 29.4422 3.5 28.875V4.125C3.5 3.55781 4.025 3.09375 4.66667 3.09375H16.3333V8.25C16.3333 9.39082 17.376 10.3125 18.6667 10.3125H24.5V28.875C24.5 29.4422 23.975 29.9062 23.3333 29.9062H4.66667ZM4.66667 0C2.09271 0 0 1.8498 0 4.125V28.875C0 31.1502 2.09271 33 4.66667 33H23.3333C25.9073 33 28 31.1502 28 28.875V9.95801C28 8.8623 27.5115 7.81172 26.6365 7.03828L20.0302 1.20527C19.1552 0.431836 17.974 0 16.7344 0H4.66667ZM8.75 16.5C7.78021 16.5 7 17.1896 7 18.0469C7 18.9041 7.78021 19.5938 8.75 19.5938H19.25C20.2198 19.5938 21 18.9041 21 18.0469C21 17.1896 20.2198 16.5 19.25 16.5H8.75ZM8.75 22.6875C7.78021 22.6875 7 23.3771 7 24.2344C7 25.0916 7.78021 25.7812 8.75 25.7812H19.25C20.2198 25.7812 21 25.0916 21 24.2344C21 23.3771 20.2198 22.6875 19.25 22.6875H8.75Z" fill="#B278FB"/>
</g>
<defs>
<clipPath id="clip0_113_929">
<rect width="28" height="33" fill="white"/>
</clipPath>
</defs>
</svg>
