<svg width="22" height="25" viewBox="0 0 22 25" fill="none" xmlns="http://www.w3.org/2000/svg">
<path id="Vector" d="M21.875 17.5781V1.17188C21.875 0.522461 21.3525 0 20.7031 0H4.6875C2.09961 0 0 2.09961 0 4.6875V20.3125C0 22.9004 2.09961 25 4.6875 25H20.7031C21.3525 25 21.875 24.4775 21.875 23.8281V23.0469C21.875 22.6807 21.7041 22.3486 21.4404 22.1338C21.2354 21.3818 21.2354 19.2383 21.4404 18.4863C21.7041 18.2764 21.875 17.9443 21.875 17.5781ZM6.25 6.54297C6.25 6.38184 6.38184 6.25 6.54297 6.25H16.8945C17.0557 6.25 17.1875 6.38184 17.1875 6.54297V7.51953C17.1875 7.68066 17.0557 7.8125 16.8945 7.8125H6.54297C6.38184 7.8125 6.25 7.68066 6.25 7.51953V6.54297ZM6.25 9.66797C6.25 9.50684 6.38184 9.375 6.54297 9.375H16.8945C17.0557 9.375 17.1875 9.50684 17.1875 9.66797V10.6445C17.1875 10.8057 17.0557 10.9375 16.8945 10.9375H6.54297C6.38184 10.9375 6.25 10.8057 6.25 10.6445V9.66797ZM18.623 21.875H4.6875C3.82324 21.875 3.125 21.1768 3.125 20.3125C3.125 19.4531 3.82812 18.75 4.6875 18.75H18.623C18.5303 19.585 18.5303 21.04 18.623 21.875Z" fill="black"/>
</svg>
