<svg width="22" height="22" viewBox="0 0 22 22" fill="none" xmlns="http://www.w3.org/2000/svg">
<g id="arrow-right-from-bracket-solid 1">
<path id="Vector" d="M21.5961 11.9711C22.1332 11.434 22.1332 10.5617 21.5961 10.0246L16.0961 4.52461C15.559 3.9875 14.6867 3.9875 14.1496 4.52461C13.6125 5.06172 13.6125 5.93398 14.1496 6.47109L17.3035 9.625H8.25C7.48945 9.625 6.875 10.2395 6.875 11C6.875 11.7605 7.48945 12.375 8.25 12.375H17.3035L14.1496 15.5289C13.6125 16.066 13.6125 16.9383 14.1496 17.4754C14.6867 18.0125 15.559 18.0125 16.0961 17.4754L21.5961 11.9754V11.9711ZM6.875 4.125C7.63555 4.125 8.25 3.51055 8.25 2.75C8.25 1.98945 7.63555 1.375 6.875 1.375H4.125C1.84766 1.375 0 3.22266 0 5.5V16.5C0 18.7773 1.84766 20.625 4.125 20.625H6.875C7.63555 20.625 8.25 20.0105 8.25 19.25C8.25 18.4895 7.63555 17.875 6.875 17.875H4.125C3.36445 17.875 2.75 17.2605 2.75 16.5V5.5C2.75 4.73945 3.36445 4.125 4.125 4.125H6.875Z" fill="#B278FB"/>
</g>
</svg>
