<svg width="28" height="30" viewBox="0 0 28 30" fill="none" xmlns="http://www.w3.org/2000/svg">
<g id="user-regular 1" clip-path="url(#clip0_113_927)">
<path id="Vector" d="M19 7.5C19 6.2568 18.4732 5.06451 17.5355 4.18544C16.5979 3.30636 15.3261 2.8125 14 2.8125C12.6739 2.8125 11.4021 3.30636 10.4645 4.18544C9.52678 5.06451 9 6.2568 9 7.5C9 8.7432 9.52678 9.93549 10.4645 10.8146C11.4021 11.6936 12.6739 12.1875 14 12.1875C15.3261 12.1875 16.5979 11.6936 17.5355 10.8146C18.4732 9.93549 19 8.7432 19 7.5ZM6 7.5C6 5.51088 6.84285 3.60322 8.34315 2.1967C9.84344 0.790176 11.8783 0 14 0C16.1217 0 18.1566 0.790176 19.6569 2.1967C21.1571 3.60322 22 5.51088 22 7.5C22 9.48912 21.1571 11.3968 19.6569 12.8033C18.1566 14.2098 16.1217 15 14 15C11.8783 15 9.84344 14.2098 8.34315 12.8033C6.84285 11.3968 6 9.48912 6 7.5ZM3.08125 27.1875H24.9188C24.3625 23.4785 20.9625 20.625 16.8563 20.625H11.1438C7.0375 20.625 3.6375 23.4785 3.08125 27.1875ZM0 28.2598C0 22.4883 4.9875 17.8125 11.1438 17.8125H16.8563C23.0125 17.8125 28 22.4883 28 28.2598C28 29.2207 27.1687 30 26.1437 30H1.85625C0.83125 30 0 29.2207 0 28.2598Z" fill="#B278FB"/>
</g>
<defs>
<clipPath id="clip0_113_927">
<rect width="28" height="30" fill="white"/>
</clipPath>
</defs>
</svg>
