<svg width="35" height="35" viewBox="0 0 35 35" fill="none" xmlns="http://www.w3.org/2000/svg">
<g id="circle-user-regular 1" clip-path="url(#clip0_48_543)">
<path id="Vector" d="M27.7881 27.3164C26.4824 24.124 23.3447 21.875 19.6875 21.875H15.3125C11.6553 21.875 8.51758 24.124 7.21191 27.3164C4.77832 24.7598 3.28125 21.3076 3.28125 17.5C3.28125 9.64551 9.64551 3.28125 17.5 3.28125C25.3545 3.28125 31.7188 9.64551 31.7188 17.5C31.7188 21.3076 30.2217 24.7598 27.7881 27.3164ZM25.0469 29.5518C22.8594 30.9258 20.2754 31.7188 17.5 31.7188C14.7246 31.7188 12.1406 30.9258 9.94629 29.5518C10.4453 27.043 12.6602 25.1562 15.3125 25.1562H19.6875C22.3398 25.1562 24.5547 27.043 25.0537 29.5518H25.0469ZM17.5 35C22.1413 35 26.5925 33.1563 29.8744 29.8744C33.1563 26.5925 35 22.1413 35 17.5C35 12.8587 33.1563 8.40752 29.8744 5.12563C26.5925 1.84374 22.1413 0 17.5 0C12.8587 0 8.40752 1.84374 5.12563 5.12563C1.84374 8.40752 0 12.8587 0 17.5C0 22.1413 1.84374 26.5925 5.12563 29.8744C8.40752 33.1563 12.8587 35 17.5 35ZM17.5 16.4062C16.7748 16.4062 16.0793 16.1182 15.5665 15.6054C15.0537 15.0926 14.7656 14.3971 14.7656 13.6719C14.7656 12.9467 15.0537 12.2512 15.5665 11.7384C16.0793 11.2256 16.7748 10.9375 17.5 10.9375C18.2252 10.9375 18.9207 11.2256 19.4335 11.7384C19.9463 12.2512 20.2344 12.9467 20.2344 13.6719C20.2344 14.3971 19.9463 15.0926 19.4335 15.6054C18.9207 16.1182 18.2252 16.4062 17.5 16.4062ZM11.4844 13.6719C11.4844 15.2673 12.1182 16.7974 13.2463 17.9256C14.3745 19.0537 15.9046 19.6875 17.5 19.6875C19.0954 19.6875 20.6255 19.0537 21.7537 17.9256C22.8818 16.7974 23.5156 15.2673 23.5156 13.6719C23.5156 12.0764 22.8818 10.5463 21.7537 9.41819C20.6255 8.29004 19.0954 7.65625 17.5 7.65625C15.9046 7.65625 14.3745 8.29004 13.2463 9.41819C12.1182 10.5463 11.4844 12.0764 11.4844 13.6719Z" fill="black"/>
</g>
<defs>
<clipPath id="clip0_48_543">
<rect width="35" height="35" fill="white"/>
</clipPath>
</defs>
</svg>
