<svg width="20" height="20" viewBox="0 0 20 20" fill="none" xmlns="http://www.w3.org/2000/svg">
<g id="arrow-rotate-right-solid 1">
<path id="Vector" d="M15.0898 6.25H13.125C12.4336 6.25 11.875 6.80859 11.875 7.5C11.875 8.19141 12.4336 8.75 13.125 8.75H18.125C18.8164 8.75 19.375 8.19141 19.375 7.5V2.5C19.375 1.80859 18.8164 1.25 18.125 1.25C17.4336 1.25 16.875 1.80859 16.875 2.5V4.5L16.1875 3.8125C12.7695 0.394531 7.23047 0.394531 3.8125 3.8125C0.394531 7.23047 0.394531 12.7695 3.8125 16.1875C7.23047 19.6055 12.7695 19.6055 16.1875 16.1875C16.6758 15.6992 16.6758 14.9062 16.1875 14.418C15.6992 13.9297 14.9062 13.9297 14.418 14.418C11.9766 16.8594 8.01953 16.8594 5.57812 14.418C3.13672 11.9766 3.13672 8.01953 5.57812 5.57812C8.01953 3.13672 11.9766 3.13672 14.418 5.57812L15.0898 6.25Z" fill="white"/>
</g>
</svg>
