<svg width="50" height="50" viewBox="0 0 50 50" fill="none" xmlns="http://www.w3.org/2000/svg">
<g clip-path="url(#clip0_1223_505)">
<path d="M0 0H50V50H0V0Z" fill="#006600"/>
<path d="M0 0H50V35.7188H0V0Z" fill="white"/>
<path d="M0 0H50V14.2813H0V0Z" fill="#CC0000"/>
<path d="M23.5 24.3333C23.5736 24.1669 23.6856 24.0367 23.8193 23.962C23.9529 23.8874 24.1011 23.8724 24.2417 23.9193C24.3823 23.9661 24.5077 24.0723 24.5993 24.2221C24.6909 24.3718 24.7438 24.557 24.75 24.75V28.3333H25.25V24.7604C25.2562 24.5674 25.3091 24.3822 25.4007 24.2325C25.4923 24.0828 25.6177 23.9766 25.7583 23.9297C25.8989 23.8828 26.0471 23.8978 26.1807 23.9725C26.3144 24.0471 26.4264 24.1773 26.5 24.3437C26.5775 24.0278 26.5977 23.6919 26.559 23.3636C26.5204 23.0352 26.4239 22.7237 26.2776 22.4546C26.1312 22.1856 25.9392 21.9665 25.7171 21.8155C25.495 21.6645 25.2493 21.5857 25 21.5857C24.7507 21.5857 24.505 21.6645 24.2829 21.8155C24.0608 21.9665 23.8688 22.1856 23.7224 22.4546C23.5761 22.7237 23.4796 23.0352 23.441 23.3636C23.4023 23.6919 23.4225 24.0278 23.5 24.3437" fill="#F8C300"/>
<path d="M23.8594 23.4063C24.0787 23.3458 24.3068 23.3786 24.5114 23.5001C24.716 23.6215 24.8869 23.8255 25 24.0833C25.1131 23.8255 25.284 23.6215 25.4886 23.5001C25.6932 23.3786 25.9213 23.3458 26.1406 23.4063C26.1079 23.0336 25.9736 22.6899 25.7633 22.4405C25.5531 22.1911 25.2814 22.0533 25 22.0533C24.7186 22.0533 24.4469 22.1911 24.2367 22.4405C24.0264 22.6899 23.8921 23.0336 23.8594 23.4063Z" fill="white"/>
<path d="M24.75 26.9062C24.7168 27.4139 24.5768 27.8988 24.3462 28.3052C24.1156 28.7115 23.8037 29.0229 23.4463 29.2035C23.0889 29.3841 22.7006 29.4266 22.3259 29.3261C21.9512 29.2256 21.6053 28.9862 21.3281 28.6354C21.2106 29.0355 21.0258 29.3943 20.7881 29.6843C20.5503 29.9744 20.2659 30.1879 19.9567 30.3086C19.6474 30.4293 19.3215 30.4539 19.004 30.3806C18.6865 30.3072 18.3858 30.1378 18.125 29.8854C18.3203 32.4896 21.25 31.9583 21.4687 29.4271C22.3828 31.5833 24.4062 30.9583 25 28.3229L24.75 26.9062Z" fill="#F8C300"/>
<path d="M25.25 26.9062C25.2832 27.4139 25.4232 27.8988 25.6538 28.3052C25.8844 28.7115 26.1963 29.0229 26.5537 29.2035C26.9111 29.3841 27.2994 29.4266 27.6741 29.3261C28.0488 29.2256 28.3947 28.9862 28.6719 28.6354C28.7894 29.0355 28.9742 29.3943 29.2119 29.6843C29.4497 29.9744 29.7341 30.1879 30.0433 30.3086C30.3526 30.4293 30.6785 30.4539 30.996 30.3806C31.3135 30.3072 31.6142 30.1378 31.875 29.8854C31.6797 32.4896 28.75 31.9583 28.5313 29.4271C27.6172 31.5833 25.5938 30.9583 25 28.3229L25.25 26.9062Z" fill="#F8C300"/>
<path d="M22.7969 31.5208C22.3828 32.6979 21.5703 32.8958 20.8594 31.9479C20.8594 31.9479 21.1406 31.6771 21.4531 31.6042C21.3906 31.2813 21.5078 30.8229 21.6797 30.5833C21.9072 30.7823 22.0757 31.0806 22.1563 31.4271C22.5859 31.3542 22.7969 31.5313 22.7969 31.5313V31.5208Z" fill="#F8C300"/>
<path d="M25.9998 31.3889C25.4471 32.46 24.6212 32.4784 24.036 31.3883C24.036 31.3883 24.3466 31.1824 24.6639 31.1785C24.6418 30.8463 24.8135 30.4197 25.0124 30.2207C25.2125 30.4666 25.3422 30.7975 25.3792 31.1569C25.8121 31.1786 25.9985 31.3992 25.9985 31.3992L25.9998 31.3889Z" fill="#F8C300"/>
<path d="M29.1425 31.9466C28.4673 32.8845 27.6501 32.7247 27.2046 31.5229C27.2046 31.5229 27.5361 31.3866 27.8497 31.4511C27.8681 31.1185 28.0893 30.7345 28.3097 30.581C28.4774 30.8667 28.5652 31.2213 28.5582 31.5839C28.9828 31.6986 29.14 31.9565 29.14 31.9565L29.1425 31.9466Z" fill="#F8C300"/>
<path d="M19.8047 34.1458C23.1947 32.8004 26.8053 32.8004 30.1953 34.1458" stroke="#F8C300" stroke-width="11"/>
<path d="M25.8087 18.63L23.6914 16.5789H26.3085L24.1912 18.63L25 15.3113L25.8087 18.63Z" fill="#F8C300"/>
<path d="M22.0587 19.9729L19.9414 17.9218H22.5585L20.4412 19.9729L21.25 16.6542L22.0587 19.9729Z" fill="#F8C300"/>
<path d="M19.316 23.6301L17.1987 21.579H19.8159L17.6986 23.6301L18.5073 20.3113L19.316 23.6301Z" fill="#F8C300"/>
<path d="M18.3087 28.63L16.1914 26.5789H18.8085L16.6912 28.63L17.5 25.3113L18.3087 28.63Z" fill="#F8C300"/>
<path d="M27.9413 19.9729L30.0586 17.9218H27.4415L29.5588 19.9729L28.75 16.6542L27.9413 19.9729Z" fill="#F8C300"/>
<path d="M30.684 23.6301L32.8013 21.579H30.1841L32.3014 23.6301L31.4927 20.3113L30.684 23.6301Z" fill="#F8C300"/>
<path d="M31.6913 28.63L33.8086 26.5789H31.1915L33.3088 28.63L32.5 25.3113L31.6913 28.63Z" fill="#F8C300"/>
</g>
<defs>
<clipPath id="clip0_1223_505">
<rect width="50" height="50" rx="25" fill="white"/>
</clipPath>
</defs>
</svg>
