<svg width="50" height="50" viewBox="0 0 50 50" fill="none" xmlns="http://www.w3.org/2000/svg">
<g id="whatsapp-svgrepo-com 1" clip-path="url(#clip0_133_405)">
<g id="XMLID_468_">
<path id="XMLID_469_" d="M36.9977 28.7307C36.9003 28.6839 33.2552 26.889 32.6075 26.6558C32.343 26.5609 32.0598 26.4682 31.7585 26.4682C31.2663 26.4682 30.8528 26.7135 30.5307 27.1953C30.1666 27.7365 29.0643 29.025 28.7237 29.4099C28.6792 29.4607 28.6185 29.5214 28.5822 29.5214C28.5495 29.5214 27.9854 29.2891 27.8146 29.2149C23.9044 27.5164 20.9364 23.4318 20.5294 22.743C20.4713 22.644 20.4688 22.599 20.4684 22.599C20.4826 22.5466 20.6141 22.4148 20.682 22.3468C20.8805 22.1503 21.0956 21.8914 21.3038 21.6409C21.4023 21.5222 21.501 21.4034 21.5979 21.2914C21.8999 20.9401 22.0343 20.6674 22.1901 20.3515L22.2718 20.1873C22.6523 19.4313 22.3273 18.7933 22.2223 18.5873C22.1361 18.4149 20.5969 14.7003 20.4333 14.3101C20.0398 13.3683 19.5198 12.9299 18.7973 12.9299C18.7302 12.9299 18.7973 12.9299 18.5161 12.9417C18.1737 12.9562 16.3093 13.2016 15.4849 13.7213C14.6107 14.2724 13.1318 16.0292 13.1318 19.1188C13.1318 21.8995 14.8964 24.525 15.6541 25.5235C15.6729 25.5487 15.7075 25.5998 15.7576 25.6732C18.6591 29.9106 22.2762 33.0508 25.9429 34.5156C29.4729 35.9256 31.1445 36.0886 32.0948 36.0886H32.095C32.4943 36.0886 32.814 36.0573 33.096 36.0295L33.2749 36.0125C34.4943 35.9044 37.1742 34.5157 37.7838 32.8218C38.264 31.4875 38.3906 30.0297 38.0711 29.5007C37.8523 29.1409 37.4752 28.9599 36.9977 28.7307Z" fill="#007A5E"/>
<path id="XMLID_470_" d="M25.4438 0C11.9022 0 0.885352 10.9341 0.885352 24.3739C0.885352 28.7208 2.04866 32.9758 4.2524 36.6998L0.0343779 49.1422C-0.0441935 49.3742 0.014248 49.6307 0.185839 49.8054C0.309703 49.9318 0.477722 50 0.649313 50C0.71506 50 0.781293 49.9901 0.845904 49.9695L13.8199 45.8468C17.3703 47.7437 21.3829 48.745 25.444 48.745C38.9842 48.7451 50 37.8122 50 24.3739C50 10.9341 38.9842 0 25.4438 0ZM25.4438 43.6679C21.6225 43.6679 17.9214 42.5644 14.7399 40.4768C14.6329 40.4065 14.5087 40.3705 14.3837 40.3705C14.3177 40.3705 14.2514 40.3805 14.187 40.401L7.68779 42.4669L9.78584 36.2771C9.8537 36.0768 9.81977 35.8558 9.69477 35.6851C7.27204 32.3747 5.99136 28.4635 5.99136 24.3739C5.99136 13.7338 14.7177 5.07727 25.4436 5.07727C36.1683 5.07727 44.8936 13.7338 44.8936 24.3739C44.8938 35.0127 36.1686 43.6679 25.4438 43.6679Z" fill="#007A5E"/>
</g>
</g>
<defs>
<clipPath id="clip0_133_405">
<rect width="50" height="50" fill="white"/>
</clipPath>
</defs>
</svg>
